<svg xmlns="http://www.w3.org/2000/svg" viewBox="0 0 500 500"><g id="freepik--background-simple--inject-31"><path d="M257.33,102.41c-75.73,34.08-7,94.81-50.71,127.88S44,225.13,89.32,311C142.56,411.9,375.7,397.89,426,274.15S333.07,68.34,257.33,102.41Z" style="fill:#41783B"></path><path d="M257.33,102.41c-75.73,34.08-7,94.81-50.71,127.88S44,225.13,89.32,311C142.56,411.9,375.7,397.89,426,274.15S333.07,68.34,257.33,102.41Z" style="fill:#fff;opacity:0.9"></path></g><g id="freepik--Shadow--inject-31"><ellipse id="freepik--path--inject-31" cx="250" cy="416.24" rx="193.89" ry="11.32" style="fill:#f5f5f5"></ellipse></g><g id="freepik--height-meter--inject-31"><path d="M181,122.26h0a42.31,42.31,0,0,0-42.31,42.32V416.72h84.63V164.58A42.32,42.32,0,0,0,181,122.26Z" style="fill:#41783B"></path><path d="M181,122.26h0a42.31,42.31,0,0,0-42.31,42.32V416.72h84.63V164.58A42.32,42.32,0,0,0,181,122.26Z" style="fill:#fafafa;opacity:0.7000000000000001"></path><path d="M183.06,167.85a5.89,5.89,0,0,1,7.59-5.65,12.05,12.05,0,0,1-.13-1.81,12.51,12.51,0,0,1,14.79-12.28,10.92,10.92,0,0,1,20.25,5.52h.18a10.07,10.07,0,0,1,0,20.13h-37A5.89,5.89,0,0,1,183.06,167.85Z" style="fill:#41783B"></path><path d="M183.06,167.85a5.89,5.89,0,0,1,7.59-5.65,12.05,12.05,0,0,1-.13-1.81,12.51,12.51,0,0,1,14.79-12.28,10.92,10.92,0,0,1,20.25,5.52h.18a10.07,10.07,0,0,1,0,20.13h-37A5.89,5.89,0,0,1,183.06,167.85Z" style="fill:#fafafa;opacity:0.5"></path><path d="M142.18,230.66a3.26,3.26,0,0,1,3.26-3.25,3.17,3.17,0,0,1,.93.14,8.26,8.26,0,0,1-.07-1,6.9,6.9,0,0,1,6.89-6.9,7.49,7.49,0,0,1,1.27.12,6,6,0,0,1,11.17,3h.1a5.56,5.56,0,0,1,0,11.11H145.35A3.25,3.25,0,0,1,142.18,230.66Z" style="fill:#41783B"></path><path d="M142.18,230.66a3.26,3.26,0,0,1,3.26-3.25,3.17,3.17,0,0,1,.93.14,8.26,8.26,0,0,1-.07-1,6.9,6.9,0,0,1,6.89-6.9,7.49,7.49,0,0,1,1.27.12,6,6,0,0,1,11.17,3h.1a5.56,5.56,0,0,1,0,11.11H145.35A3.25,3.25,0,0,1,142.18,230.66Z" style="fill:#fafafa;opacity:0.5"></path><path d="M151.18,128.3a4.43,4.43,0,0,1,4.43-4.43,4.16,4.16,0,0,1,1.27.19,8.8,8.8,0,0,1-.1-1.36,9.38,9.38,0,0,1,9.38-9.38,9,9,0,0,1,1.73.16,8.2,8.2,0,0,1,15.2,4.14h.13a7.56,7.56,0,1,1,0,15.12H155.48A4.42,4.42,0,0,1,151.18,128.3Z" style="fill:#41783B"></path><path d="M151.18,128.3a4.43,4.43,0,0,1,4.43-4.43,4.16,4.16,0,0,1,1.27.19,8.8,8.8,0,0,1-.1-1.36,9.38,9.38,0,0,1,9.38-9.38,9,9,0,0,1,1.73.16,8.2,8.2,0,0,1,15.2,4.14h.13a7.56,7.56,0,1,1,0,15.12H155.48A4.42,4.42,0,0,1,151.18,128.3Z" style="fill:#fafafa;opacity:0.5"></path><path d="M116.9,278.5a3.24,3.24,0,0,1,3.25-3.25,3.48,3.48,0,0,1,.93.13,8.09,8.09,0,0,1-.07-1,6.9,6.9,0,0,1,6.89-6.9,7.49,7.49,0,0,1,1.27.12,6,6,0,0,1,11.17,3.05h.1a5.56,5.56,0,0,1,0,11.11H120.06A3.24,3.24,0,0,1,116.9,278.5Z" style="fill:#41783B"></path><path d="M116.9,278.5a3.24,3.24,0,0,1,3.25-3.25,3.48,3.48,0,0,1,.93.13,8.09,8.09,0,0,1-.07-1,6.9,6.9,0,0,1,6.89-6.9,7.49,7.49,0,0,1,1.27.12,6,6,0,0,1,11.17,3.05h.1a5.56,5.56,0,0,1,0,11.11H120.06A3.24,3.24,0,0,1,116.9,278.5Z" style="fill:#fafafa;opacity:0.5"></path><path d="M108.16,166.7a5.2,5.2,0,0,1,5.2-5.19,5.32,5.32,0,0,1,1.49.22,10.44,10.44,0,0,1-.12-1.59,11,11,0,0,1,11-11,11.27,11.27,0,0,1,2,.19,9.61,9.61,0,0,1,17.82,4.86h.16a8.86,8.86,0,0,1,0,17.72H113.21A5.2,5.2,0,0,1,108.16,166.7Z" style="fill:#41783B"></path><path d="M108.16,166.7a5.2,5.2,0,0,1,5.2-5.19,5.32,5.32,0,0,1,1.49.22,10.44,10.44,0,0,1-.12-1.59,11,11,0,0,1,11-11,11.27,11.27,0,0,1,2,.19,9.61,9.61,0,0,1,17.82,4.86h.16a8.86,8.86,0,0,1,0,17.72H113.21A5.2,5.2,0,0,1,108.16,166.7Z" style="fill:#fafafa;opacity:0.5"></path><polygon points="155.99 202.98 165.72 416.72 125.95 416.72 136.32 202.98 155.99 202.98" style="fill:#263238"></polygon><polygon points="155.99 202.98 165.72 416.72 125.95 416.72 136.32 202.98 155.99 202.98" style="fill:#fafafa;opacity:0.8"></polygon><polygon points="131.38 416.29 138.5 282.56 140.5 316.37 146.16 223.5 153.32 306.51 153.32 248.94 160.3 416.72 131.38 416.29" style="fill:#fafafa;opacity:0.30000000000000004"></polygon><path d="M109.58,416.72c-2.86-4.69,1.87-8.52,4.49-5.9,0,0-3.18-6,3.94-9.33s10.82,2.36,10.82,5c0,0,1.58-6.43,9.49-5s7.61,10.27,7.61,10.27,2.66-6.67,11.12-4.2c0,0-.53-7.14,5.8-7.1s7.12,4.79,7.12,4.79,2.37-3.08,6.33.57,1.29,6.71,1.29,6.71,5.72-.7,5.38,4.19Z" style="fill:#263238"></path><path d="M109.58,416.72c-2.86-4.69,1.87-8.52,4.49-5.9,0,0-3.18-6,3.94-9.33s10.82,2.36,10.82,5c0,0,1.58-6.43,9.49-5s7.61,10.27,7.61,10.27,2.66-6.67,11.12-4.2c0,0-.53-7.14,5.8-7.1s7.12,4.79,7.12,4.79,2.37-3.08,6.33.57,1.29,6.71,1.29,6.71,5.72-.7,5.38,4.19Z" style="fill:#fafafa;opacity:0.6000000000000001"></path><path d="M118.61,416.72s-2.18-4,2.17-7.12,9.1,1.28,9.1,1.28.79-4.33,5.74-3.38,4.91,6.35,4.91,6.35,5.18-2.8,9.53,1.24c0,0,.59-3.85,4.15-4.85s6.18,2.42,6.18,2.42a5.55,5.55,0,0,1,5-5.53c5.05-.66,6.63,4.67,5.84,6.16,0,0,3.37.23,3.37,3.43Z" style="fill:#fafafa;opacity:0.4"></path><path d="M152.71,184.08s7.71,9.75,7.52,17.07-3,9.57-3,9.57l.4-4.73s-1.65,8.76-8.94,14l-2.63-4.82s-.89,5.34,0,8.3c0,0-9.33-5.38-10.16-12.78l-1,3.12s-4.16-7-3.36-13.68,7.13-15.23,7.13-15.23Z" style="fill:#41783B"></path><path d="M152.71,184.08s7.71,9.75,7.52,17.07-3,9.57-3,9.57l.4-4.73s-1.65,8.76-8.94,14l-2.63-4.82s-.89,5.34,0,8.3c0,0-9.33-5.38-10.16-12.78l-1,3.12s-4.16-7-3.36-13.68,7.13-15.23,7.13-15.23Z" style="fill:#fafafa;opacity:0.2"></path><path d="M153.44,188.3a38.72,38.72,0,0,1,3.18,9.49,10.32,10.32,0,0,1-1.59,7.29l.05-5.18a24,24,0,0,1-4.68,10.95l-3.69-5.77s-2.77,4.84-2.64,8a11.82,11.82,0,0,1-3.46-10.55s-1.81,1.84-1.94,3.29c0,0-6.47-5.53,0-17.53Z" style="fill:#fafafa;opacity:0.2"></path><path d="M135.5,181.18h20.69a0,0,0,0,1,0,0v4.51a1.29,1.29,0,0,1-1.29,1.29h-18.1a1.29,1.29,0,0,1-1.29-1.29v-4.51A0,0,0,0,1,135.5,181.18Z" style="fill:#41783B"></path><path d="M135.5,181.18h20.69a0,0,0,0,1,0,0v4.51a1.29,1.29,0,0,1-1.29,1.29h-18.1a1.29,1.29,0,0,1-1.29-1.29v-4.51A0,0,0,0,1,135.5,181.18Z" style="fill:#fafafa;opacity:0.5"></path><path d="M156.37,181.18H135.31s-7.39-39.56-4.22-56a42.88,42.88,0,0,1,7.6-16.9,55.16,55.16,0,0,1,4.84-5.79c.49-.51,1-1,1.39-1.39a1.32,1.32,0,0,1,1.84,0c.43.42.89.88,1.38,1.39a55.16,55.16,0,0,1,4.84,5.79,42.89,42.89,0,0,1,7.61,16.9C163.75,141.62,156.37,181.18,156.37,181.18Z" style="fill:#41783B"></path><circle cx="145.84" cy="134.36" r="10.15" style="fill:#fafafa;opacity:0.6000000000000001"></circle><circle cx="145.84" cy="134.36" r="7.41" style="fill:#263238"></circle><path d="M159.14,163.42s12.27,3.32,15,12.22c1.92,6.19.31,14-.85,18.16a1.05,1.05,0,0,1-2,.13c-1.88-4.34-6.43-12.18-15-12.75a86,86,0,0,1,.7-8.61C157.81,166.15,159.14,163.42,159.14,163.42Z" style="fill:#263238"></path><path d="M132.53,163.42s-12.26,3.32-15,12.22c-1.93,6.19-.31,14,.85,18.16a1.05,1.05,0,0,0,2,.13c1.87-4.34,6.42-12.18,15-12.75a86,86,0,0,0-.7-8.61C133.86,166.15,132.53,163.42,132.53,163.42Z" style="fill:#263238"></path><path d="M145.84,163.42h0a2.64,2.64,0,0,1,2.64,2.64v26.16a2.34,2.34,0,0,1-2.34,2.34h-.59a2.34,2.34,0,0,1-2.34-2.34V166.06a2.64,2.64,0,0,1,2.64-2.64Z" style="fill:#263238"></path><path d="M153,108.27H138.69a55.16,55.16,0,0,1,4.84-5.79c.5-.51,1-1,1.4-1.39a1.3,1.3,0,0,1,1.83,0c.43.42.9.88,1.38,1.39A55.16,55.16,0,0,1,153,108.27Z" style="fill:#263238"></path><g style="opacity:0.2"><rect x="194.49" y="180.18" width="28.28" height="2"></rect><rect x="208.5" y="186.16" width="14.27" height="2"></rect><rect x="208.5" y="192.13" width="14.27" height="2"></rect><rect x="208.5" y="198.11" width="14.27" height="2"></rect><rect x="194.49" y="204.09" width="28.28" height="2"></rect><rect x="208.5" y="210.06" width="14.27" height="2"></rect><rect x="208.5" y="216.04" width="14.27" height="2"></rect><rect x="208.5" y="222.02" width="14.27" height="2"></rect><rect x="194.49" y="227.99" width="28.28" height="2"></rect><rect x="208.5" y="233.97" width="14.27" height="2"></rect><rect x="208.5" y="239.95" width="14.27" height="2"></rect><rect x="208.5" y="245.92" width="14.27" height="2"></rect><rect x="194.49" y="251.9" width="28.28" height="2"></rect><rect x="208.5" y="257.88" width="14.27" height="2"></rect><rect x="208.5" y="263.85" width="14.27" height="2"></rect><rect x="208.5" y="269.83" width="14.27" height="2"></rect><rect x="194.49" y="275.81" width="28.28" height="2"></rect><rect x="208.5" y="281.78" width="14.27" height="2"></rect><rect x="208.5" y="287.76" width="14.27" height="2"></rect><rect x="208.5" y="293.74" width="14.27" height="2"></rect><rect x="194.49" y="299.71" width="28.28" height="2"></rect><rect x="208.5" y="305.69" width="14.27" height="2"></rect><rect x="208.5" y="311.67" width="14.27" height="2"></rect><rect x="208.5" y="317.64" width="14.27" height="2"></rect><rect x="194.49" y="323.62" width="28.28" height="2"></rect><rect x="208.5" y="329.6" width="14.27" height="2"></rect><rect x="208.5" y="335.57" width="14.27" height="2"></rect><rect x="208.5" y="341.55" width="14.27" height="2"></rect><rect x="194.49" y="347.53" width="28.28" height="2"></rect><rect x="208.5" y="353.5" width="14.27" height="2"></rect><rect x="208.5" y="359.48" width="14.27" height="2"></rect><rect x="208.5" y="365.46" width="14.27" height="2"></rect><rect x="194.49" y="371.43" width="28.28" height="2"></rect><rect x="208.5" y="377.41" width="14.27" height="2"></rect><rect x="208.5" y="383.39" width="14.27" height="2"></rect><rect x="208.5" y="389.36" width="14.27" height="2"></rect><rect x="194.49" y="395.34" width="28.28" height="2"></rect><rect x="208.5" y="401.32" width="14.27" height="2"></rect><rect x="208.5" y="407.29" width="14.27" height="2"></rect><rect x="208.5" y="413.27" width="14.27" height="2"></rect></g></g><g id="freepik--character-1--inject-31"><g id="freepik--group--inject-31"><path d="M217.71,316.12c3,6.39,6,12.82,7.74,19.74A116.09,116.09,0,0,1,227,356.69l-4.42.56c-1.79-6.29-3.17-13.18-5-19.42-2.24-6-5.54-12-8.07-17.84l8.13-3.87Z" style="fill:#dc897c"></path><path d="M225,328.11l-4.26,3-6.55,4.63L211.63,327l-1.23-4.18,3.25-12.93C220.67,313.57,225,328.11,225,328.11Z" style="fill:#41783B"></path><path d="M220.76,331.13l-6.55,4.63L211.63,327l2.68-7.55S219.69,324.23,220.76,331.13Z" style="isolation:isolate;opacity:0.2"></path><path d="M212.87,413.05l-5.72-.22s-.21-18.67-1.68-36c-.56-6.55-1.3-12.9-2.28-18-.24-1.27-.5-2.45-.77-3.55-4.27-17.06,16.63-11.68,16.63-11.68S224.1,374,212.87,413.05Z" style="fill:#e4897b"></path><path d="M205.47,376.84c-.56-6.55-1.3-12.9-2.28-18a11.54,11.54,0,0,1,8.23-.06S211.59,371.91,205.47,376.84Z" style="isolation:isolate;opacity:0.2"></path><path d="M184.91,341.08c-1.42,7.23,4.74,30.23,5.57,69.7h5.69S202,388.55,205.52,366c0,0,13.63-9.74,12.52-16.47S184.91,341.08,184.91,341.08Z" style="fill:#e4897b"></path><path d="M220.18,343.4l-35.44,1.8s-.51-3.21-.7-6.78c0-.8-.06-1.62-.06-2.43,0-3,.08-5.9.21-8.59,0-.91.08-1.8.14-2.66l.09-1.45.06-.91c0-.07,0-.14,0-.21.16-2.21.33-4.19.49-5.85.36-3.59.67-5.76.67-5.76s5.19-2.77,16.4-2.68a37.58,37.58,0,0,1,9.82,1.2,6.17,6.17,0,0,1,4.5,6.21,57,57,0,0,0,.26,7.33c.26,2.81.67,5.77,1.14,8.64A120.87,120.87,0,0,0,220.18,343.4Z" style="fill:#41783B"></path><path d="M227.54,356.24s1.13,4.52,1.12,5.19-3.69,6.36-3.69,6.36l-6.42-4.6,2-4.21s0-4.25,2.79-5.32S227.54,356.24,227.54,356.24Z" style="fill:#e4897b"></path><path d="M187.58,308.93c-2,3.6,16.15,8.62,16.15,8.62s9.53-3.26,8.66-7.89S191.51,301.78,187.58,308.93Z" style="fill:#41783B"></path><path d="M187.58,308.93c-2,3.6,16.15,8.62,16.15,8.62s9.53-3.26,8.66-7.89S191.51,301.78,187.58,308.93Z" style="fill:#fff;opacity:0.5"></path><path d="M204.27,304.37a5,5,0,0,0,.78,3.83,4,4,0,0,0,.44.57,7.38,7.38,0,0,0,.8.77h0c1.17,4-2.44,7.22-2.44,7.22-7.68-2.74-9.83-6.58-9.83-6.58a9.44,9.44,0,0,0,1-7.66,12.77,12.77,0,0,0-1.72-3.67l8.52,1.54,3.88.71A8.25,8.25,0,0,0,204.27,304.37Z" style="fill:#e4897b"></path><path d="M204.27,304.37a5,5,0,0,0,.78,3.83,4,4,0,0,0,.44.57c-4.66,0-8.48-3.78-10.48-6.25a12.77,12.77,0,0,0-1.72-3.67l8.52,1.54,3.88.71A8.25,8.25,0,0,0,204.27,304.37Z" style="isolation:isolate;opacity:0.2"></path><path d="M184.14,275c1.2-7,11.83-9,14.65-8.66s1,1.83,1,1.83,7-.69,9.36,1-.56,2.67-.56,2.67,3.92,1.52,4.88,4.56-3.1,4.43-3.1,4.43L196,300.45s-1.92,2.08-4.33,1.49c-3.8-.92-6.09-5.58-6.09-5.58s-.63,1.68-1.75.9-2-8.54-2-8.54-.58,1.37-1.63.07-.86-6,0-9.12A8.61,8.61,0,0,1,184.14,275Z" style="fill:#263238"></path><path d="M205.62,270.87s11.66,5.48,3.13,16.8C199.11,300.45,205.62,270.87,205.62,270.87Z" style="fill:#263238"></path><path d="M185.59,290c2.43,7.3,8.72,14.47,15.18,14,11.84-.84,15.71-4.14,14.82-12.86-.76-7.86-6.49-19.13-16.41-19S182.22,279.82,185.59,290Z" style="fill:#e4897b"></path><path d="M208,275.54A21.29,21.29,0,0,1,197.2,279s-4.34,1.88-2.06,6.73-2.93,9.14-1.44,15.95c0,0-7.26.94-12.11-13.58-3.54-10.57,4.75-17.13,14.41-19.39C204.08,266.83,211.24,271.18,208,275.54Z" style="fill:#263238"></path><path d="M203.13,287.77c.28.94,1,1.56,1.62,1.37s.87-1.1.6-2-1-1.55-1.62-1.37S202.85,286.84,203.13,287.77Z" style="fill:#263238"></path><path d="M210.51,285.18c.26.89,1,1.49,1.54,1.3s.84-1,.58-1.94-1-1.47-1.55-1.3S210.24,284.28,210.51,285.18Z" style="fill:#263238"></path><path d="M204.43,282.27a.5.5,0,0,0,.08-.26.45.45,0,0,0-.49-.39,4.31,4.31,0,0,0-3.4,2.12.43.43,0,0,0,.19.59h0a.46.46,0,0,0,.59-.19h0a3.44,3.44,0,0,1,2.75-1.63A.51.51,0,0,0,204.43,282.27Z" style="fill:#263238"></path><path d="M211.8,280.49a.5.5,0,0,0,.2-.18.44.44,0,0,0-.24-.58,4.29,4.29,0,0,0-4,.24.43.43,0,0,0-.11.61h0a.45.45,0,0,0,.61.11h0a3.45,3.45,0,0,1,3.2-.12A.48.48,0,0,0,211.8,280.49Z" style="fill:#263238"></path><path d="M208.9,287l1.28,4.06a5.26,5.26,0,0,0,2.58-1.75A12.43,12.43,0,0,1,208.9,287Z" style="fill:#de5753"></path><path d="M209.18,294.7a4,4,0,0,1-3.39-1.86.37.37,0,0,1,.09-.52.36.36,0,0,1,.52.08,3.44,3.44,0,0,0,4.44,1.18.38.38,0,0,1,.36.66A4.74,4.74,0,0,1,209.18,294.7Z" style="fill:#263238"></path><path d="M206,273.24s4.94,1.83,4,3.47-5.25.24-5.25.24.35,3.27-2.29,3-3.1-1.15-3.1-1.15-1.63,5.66-4.49,2.21S206,273.24,206,273.24Z" style="fill:#263238"></path><path d="M194.91,292.39c-.81-1.57-5.35-4.19-7-.23s3.68,6.18,6.29,6S196.19,294.88,194.91,292.39Z" style="fill:#e4897b"></path><path d="M184.74,345.2c-1.3,15.3,1.27,36.73,1.27,36.73h17.46l1-7.65,1,7.65h14.72s3-24.44,0-38.53Z" style="fill:#263238"></path><path d="M213.76,407.89h-7.22c-.19,0-.36.22-.41.53l-.94,6.9c-.1.72.24,1.4.69,1.39,1.88-.06,4.6-.24,7-.24,2.77,0,5.16.25,8.4.25,2,0,2.51-3.22,1.69-3.52-3.74-1.32-4.79-1.47-8-4.7A1.71,1.71,0,0,0,213.76,407.89Z" style="fill:#263238"></path><path d="M196.75,407.89h-7.22c-.19,0-.36.22-.41.53l-.94,6.9c-.1.72.24,1.4.69,1.39,1.88-.06,4.6-.24,7-.24,2.77,0,5.16.25,8.4.25,2,0,2.51-3.22,1.69-3.52-3.74-1.32-4.79-1.47-8-4.7A1.67,1.67,0,0,0,196.75,407.89Z" style="fill:#263238"></path><path d="M184,338.42c0-.8-.06-1.62-.06-2.43,0-3,.08-5.9.21-8.59,0-.91.08-1.8.14-2.66l.09-1.45.06-.91a14.86,14.86,0,0,1,6.72.36S192.42,333.2,184,338.42Z" style="isolation:isolate;opacity:0.2"></path><path d="M189.41,318.49c-1.1,4.69-2.49,9.88-3.66,14.58a39.38,39.38,0,0,0-1.27,9.27c-.25,4.91-.48,10.29-.88,15.19l-4.45.28a115.58,115.58,0,0,1-2.34-20.76c.36-7.12,2.09-14,3.9-20.83l8.7,2.27Z" style="fill:#dc897c"></path><path d="M185.65,310.56c-5.33,2.48-9.42,16.19-9.42,16.19l12,5.67,3.6-11.73C192.71,317.79,185.65,310.56,185.65,310.56Z" style="fill:#41783B"></path><path d="M178.64,356.24s-1.13,4.52-1.12,5.19,3.69,6.36,3.69,6.36l6.42-4.6-2-4.21s0-4.25-2.79-5.32S178.64,356.24,178.64,356.24Z" style="fill:#e4897b"></path><path d="M207.49,317.34c.09.39-.28.8-.81.92s-1-.11-1.12-.51.28-.8.81-.91A.88.88,0,0,1,207.49,317.34Z" style="isolation:isolate;opacity:0.2"></path><path d="M209.43,325.89a.51.51,0,0,1-.39-.18c-1.94-2.32-3-7.84-3-8.07a.51.51,0,0,1,.41-.59.51.51,0,0,1,.58.41c0,.05,1,5.49,2.79,7.61a.51.51,0,0,1-.06.71A.54.54,0,0,1,209.43,325.89Z" style="fill:#41783B"></path><path d="M199.24,317.3c-.08.4.28.81.82.92a.89.89,0,0,0,1.12-.5c.08-.4-.29-.81-.82-.92A.9.9,0,0,0,199.24,317.3Z" style="isolation:isolate;opacity:0.2"></path><path d="M199.49,325.89a.45.45,0,0,1-.2,0,.49.49,0,0,1-.26-.65c1.26-3,.71-7.54.7-7.59a.5.5,0,0,1,.43-.56.49.49,0,0,1,.56.43c0,.2.6,4.88-.77,8.11A.5.5,0,0,1,199.49,325.89Z" style="fill:#41783B"></path><path d="M209.43,325.89a.51.51,0,0,1-.39-.18c-1.94-2.32-3-7.84-3-8.07a.51.51,0,0,1,.41-.59.51.51,0,0,1,.58.41c0,.05,1,5.49,2.79,7.61a.51.51,0,0,1-.06.71A.54.54,0,0,1,209.43,325.89Z" style="fill:#fff;opacity:0.5"></path><path d="M199.49,325.89a.45.45,0,0,1-.2,0,.49.49,0,0,1-.26-.65c1.26-3,.71-7.54.7-7.59a.5.5,0,0,1,.43-.56.49.49,0,0,1,.56.43c0,.2.6,4.88-.77,8.11A.5.5,0,0,1,199.49,325.89Z" style="fill:#fff;opacity:0.5"></path></g></g></svg>
