<svg xmlns="http://www.w3.org/2000/svg" viewBox="0 0 500 500"><g id="freepik--background-simple--inject-149"><path d="M311.55,389.33a62,62,0,0,1-22.88,8.9c-18.46,3.47-37.88-.36-54.67-8.8-16-8-29.58-19.95-45.31-28.38-40.76-21.86-85.58-20-104.18-71.24-9.92-27.32-8.25-67,14.51-88,17-15.63,44-13.23,59.59-30.88,26.42-30,37.67-76.38,82.84-84.47,19.95-3.57,39.82-1,56.91,10.57,16.65,11.27,22.85,31.61,31.18,48.86,7.59,15.71,17.74,27.51,34.46,33.26,26.7,9.18,59.15,11.82,62.49,46.83,1.36,14.24-3.2,28.47-9.8,41.16-8.94,17.19-22.44,32.89-40.52,39.9-12.3,4.76-22.3,10.34-27.57,23.16C338.92,353.74,331,376.57,311.55,389.33Z" style="fill:#41783B"></path><path d="M311.55,389.33a62,62,0,0,1-22.88,8.9c-18.46,3.47-37.88-.36-54.67-8.8-16-8-29.58-19.95-45.31-28.38-40.76-21.86-85.58-20-104.18-71.24-9.92-27.32-8.25-67,14.51-88,17-15.63,44-13.23,59.59-30.88,26.42-30,37.67-76.38,82.84-84.47,19.95-3.57,39.82-1,56.91,10.57,16.65,11.27,22.85,31.61,31.18,48.86,7.59,15.71,17.74,27.51,34.46,33.26,26.7,9.18,59.15,11.82,62.49,46.83,1.36,14.24-3.2,28.47-9.8,41.16-8.94,17.19-22.44,32.89-40.52,39.9-12.3,4.76-22.3,10.34-27.57,23.16C338.92,353.74,331,376.57,311.55,389.33Z" style="fill:#fff;opacity:0.9"></path></g><g id="freepik--Shadow--inject-149"><ellipse id="freepik--path--inject-149" cx="250" cy="416.24" rx="193.89" ry="11.32" style="fill:#f5f5f5"></ellipse></g><g id="freepik--Lollipops--inject-149"><path d="M274,239.71H403.59a4.54,4.54,0,0,1,4.54,4.54V415.31a0,0,0,0,1,0,0H269.41a0,0,0,0,1,0,0V244.26A4.54,4.54,0,0,1,274,239.71Z" style="fill:#41783B"></path><polygon points="269.41 288.43 269.41 415.31 194.78 415.31 194.78 370.21 269.41 288.43" style="fill:#41783B"></polygon><path d="M274,239.71H403.59a4.54,4.54,0,0,1,4.54,4.54V415.31a0,0,0,0,1,0,0H269.41a0,0,0,0,1,0,0V244.26A4.54,4.54,0,0,1,274,239.71Z" style="fill:#fff;opacity:0.2;isolation:isolate"></path><polygon points="269.41 288.43 269.41 415.31 194.78 415.31 194.78 370.21 269.41 288.43" style="fill:#fff;opacity:0.30000000000000004;isolation:isolate"></polygon><path d="M269.41,288.43s19.21,33.84,27.26,68.23l29.39-117h15.61L313.91,354.47l27.76-7.69,3.9-107.66,18.86.59L360.82,345l28.39-105.24H402.4a5.74,5.74,0,0,1,5.73,5.74V415.31H269.41Z" style="opacity:0.1;isolation:isolate"></path><rect x="356.29" y="231.15" width="3.97" height="139.5" transform="matrix(1, -0.07, 0.07, 1, -20.55, 26.32)" style="fill:#263238"></rect><rect x="356.29" y="231.16" width="3.97" height="139.49" transform="translate(-20.55 26.32) rotate(-4.09)" style="fill:#fff;opacity:0.30000000000000004;isolation:isolate"></rect><path d="M355.27,231.19,358,269.26c-1.41-.72-2.8-1.45-4.14-2.19l-2.54-35.6Z" style="opacity:0.2;isolation:isolate"></path><path d="M389.05,229.66a37.05,37.05,0,0,1-6.25,14.56,37.53,37.53,0,0,1-9.36,9.11,36.58,36.58,0,0,1-14.69,5.86l-.74.12c-.89.13-1.78.23-2.69.29a37.22,37.22,0,0,1-9.65-.57,36.82,36.82,0,0,1-14.54-6.25,37.32,37.32,0,0,1-9.12-9.34,36.67,36.67,0,0,1-5.86-14.71,32,32,0,0,1-.42-3.44,37.54,37.54,0,0,1,.56-9.63,37,37,0,0,1,30.32-29.54c1.12-.18,2.26-.32,3.43-.41a37,37,0,0,1,24.19,6.82,37.52,37.52,0,0,1,9.12,9.35,36.77,36.77,0,0,1,5.85,14.71,31.94,31.94,0,0,1,.42,3.42A36.76,36.76,0,0,1,389.05,229.66Z" style="fill:#263238"></path><path d="M352.8,222.65h0s0,0,0,0l.29,0-.23,0h0c14.62-12,27.67-10,36.34-6a36.67,36.67,0,0,0-5.86-14.71c-13.81,2.55-28.06,17.86-30.58,20.66a1.55,1.55,0,0,1,.19-.21l-.18.15c1.89-18.8,12.46-26.67,21.45-29.94a36.88,36.88,0,0,0-14.55-6.26c-8,11.58-7.21,32.52-7,36.26h0l0-.29a2,2,0,0,0,0,.24c-12-14.64-10-27.68-6-36.34A36.53,36.53,0,0,0,331.9,192c2.55,13.71,17.66,27.86,20.61,30.52l-.17-.14.15.18c-18.79-1.89-26.66-12.46-29.93-21.45a36.93,36.93,0,0,0-6.26,14.56c11.59,8,32.56,7.2,36.26,7h0s0,0,0,0h0l-.29,0,.24,0h0c-14.62,11.95-27.67,10-36.33,6a36.57,36.57,0,0,0,5.86,14.7c13.7-2.54,27.85-17.66,30.51-20.61l-.14.17a1.56,1.56,0,0,0,.2-.16h0c-1.89,18.81-12.48,26.68-21.46,30A36.85,36.85,0,0,0,345.67,259c8-11.56,7.22-32.46,7-36.23v0h0l0,.28a2.08,2.08,0,0,1,0-.23h0c11.94,14.62,10,27.66,6,36.33a36.71,36.71,0,0,0,14.7-5.86c-2.55-13.81-17.86-28.05-20.66-30.57l.22.19c-.05-.07-.11-.13-.17-.2h0c18.82,1.9,26.68,12.48,30,21.47a37.14,37.14,0,0,0,6.24-14.55C377.47,221.69,356.52,222.44,352.8,222.65Zm0,.09Zm0-.09h0s0,0,0,0l.29,0-.23,0h0c14.62-12,27.67-10,36.34-6a36.67,36.67,0,0,0-5.86-14.71c-13.81,2.55-28.06,17.86-30.58,20.66a1.55,1.55,0,0,1,.19-.21l-.18.15c1.89-18.8,12.46-26.67,21.45-29.94a36.88,36.88,0,0,0-14.55-6.26c-8,11.58-7.21,32.52-7,36.26h0l0-.29a2,2,0,0,0,0,.24c-12-14.64-10-27.68-6-36.34A36.53,36.53,0,0,0,331.9,192c2.55,13.71,17.66,27.86,20.61,30.52l-.17-.14.15.18c-18.79-1.89-26.66-12.46-29.93-21.45a36.93,36.93,0,0,0-6.26,14.56c11.59,8,32.56,7.2,36.26,7h0s0,0,0,0h0l-.29,0,.24,0h0c-14.62,11.95-27.67,10-36.33,6a36.57,36.57,0,0,0,5.86,14.7c13.7-2.54,27.85-17.66,30.51-20.61l-.14.17a1.56,1.56,0,0,0,.2-.16h0c-1.89,18.81-12.48,26.68-21.46,30A36.85,36.85,0,0,0,345.67,259c8-11.56,7.22-32.46,7-36.23v0h0l0,.28a2.08,2.08,0,0,1,0-.23h0c11.94,14.62,10,27.66,6,36.33a36.71,36.71,0,0,0,14.7-5.86c-2.55-13.81-17.86-28.05-20.66-30.57l.22.19c-.05-.07-.11-.13-.17-.2h0c18.82,1.9,26.68,12.48,30,21.47a37.14,37.14,0,0,0,6.24-14.55C377.47,221.69,356.52,222.44,352.8,222.65Z" style="fill:#fff;opacity:0.6000000000000001;isolation:isolate"></path><g style="opacity:0.2"><path d="M316.15,228.73A36.81,36.81,0,0,0,322,243.44a37.48,37.48,0,0,0,9.12,9.34,37,37,0,0,0,7.55,4.17,34.91,34.91,0,0,1-4.5-2.75,36.18,36.18,0,0,1-8.82-9A35.53,35.53,0,0,1,319.7,231a33.06,33.06,0,0,1-.39-3.32,35.62,35.62,0,0,1,6.58-23.37,36,36,0,0,1,9-8.81,35.46,35.46,0,0,1,14.21-5.67c1.09-.18,2.19-.31,3.31-.39A35.57,35.57,0,0,1,375.82,196a36.22,36.22,0,0,1,8.82,9,35.24,35.24,0,0,1,3,5.42,36.57,36.57,0,0,0-4.29-8.57,37.56,37.56,0,0,0-9.13-9.35,36.88,36.88,0,0,0-14.55-6.26,37.59,37.59,0,0,0-9.64-.56c-1.16.09-2.31.22-3.43.41A36.68,36.68,0,0,0,331.9,192a37,37,0,0,0-16.16,33.31C315.82,226.46,316,227.61,316.15,228.73Z"></path><path d="M375.64,204.18c-.52-.72-1.14-1.35-1.73-2s-1.25-1.26-2-1.81a26.21,26.21,0,0,0-4.39-3,38.15,38.15,0,0,0-9.87-3.8,27.6,27.6,0,0,0-10.6-.34,25.66,25.66,0,0,0-5.15,1.4,26.43,26.43,0,0,0-9,5.65,27,27,0,0,0-3.52,4,33,33,0,0,0-6.09,20.11,27.45,27.45,0,0,0,2.33,10.43,21.86,21.86,0,0,0,2.76,4.65,21,21,0,0,0,3.8,3.86,26.24,26.24,0,0,0,20.47,4.89,22.87,22.87,0,0,0,9.9-4.29,22,22,0,0,0,2.08-1.78c.65-.63,1.23-1.34,1.83-2a23.41,23.41,0,0,0,2.82-4.67,22.65,22.65,0,0,0,2.05-10.64,20.2,20.2,0,0,0-3.31-10.39,18.16,18.16,0,0,0-1.75-2.18,16.77,16.77,0,0,0-2.12-1.83,18.28,18.28,0,0,0-2.4-1.46,17.62,17.62,0,0,0-2.62-1,18.48,18.48,0,0,0-11,.36,16,16,0,0,0-4.89,2.74,18.59,18.59,0,0,0-3.67,4.21,18,18,0,0,0-2.22,5.14,11.88,11.88,0,0,0-.14,5.75,10.78,10.78,0,0,0,2.87,5.1c.36.32.74.62,1.12.93.19.15.37.32.57.45l.61.36,1.23.72c.45.19.89.42,1.34.56a19.75,19.75,0,0,0,5.49,1.09,16.68,16.68,0,0,0,5.63-.6,8.19,8.19,0,0,0,6.26-9.29,9.82,9.82,0,0,0-2.28-5.55,6.66,6.66,0,0,0-2.69-1.85,7,7,0,0,0-7,1.47,3.84,3.84,0,0,0-.82.84.6.6,0,0,1-.08.08h0a3.86,3.86,0,1,0,6.37.07,3.6,3.6,0,0,1,2.2,1.22,7.17,7.17,0,0,1,1.64,4,5.57,5.57,0,0,1-4.35,6.53,16.27,16.27,0,0,1-9.51-.36c-.38-.12-.72-.3-1.08-.44l-1-.6-.52-.29a5.72,5.72,0,0,1-.46-.37l-.91-.73a8.32,8.32,0,0,1-2.22-3.89,9.45,9.45,0,0,1,.09-4.63,15.4,15.4,0,0,1,1.88-4.45,16.5,16.5,0,0,1,3.16-3.69,13.81,13.81,0,0,1,4.17-2.39,16.3,16.3,0,0,1,9.65-.39,13.82,13.82,0,0,1,2.28.84,14.51,14.51,0,0,1,2.08,1.25,13.85,13.85,0,0,1,1.86,1.56,15.59,15.59,0,0,1,1.54,1.9,18.14,18.14,0,0,1,3,9.31,20.74,20.74,0,0,1-1.8,9.76,20.42,20.42,0,0,1-15.21,11.84,24.58,24.58,0,0,1-19.19-4.41,19.35,19.35,0,0,1-3.56-3.56,20.25,20.25,0,0,1-2.62-4.32,26.18,26.18,0,0,1-2.28-9.88A31.64,31.64,0,0,1,330.42,205a25.16,25.16,0,0,1,3.34-3.88,24.17,24.17,0,0,1,4-3.18,25.78,25.78,0,0,1,4.57-2.31,24.84,24.84,0,0,1,4.94-1.39,26.64,26.64,0,0,1,10.22.25,37,37,0,0,1,9.66,3.64,25.06,25.06,0,0,1,4.27,2.86c.69.53,1.27,1.16,1.91,1.74s1.18,1.25,1.69,1.94a28.64,28.64,0,0,1,4.8,9.11,35.91,35.91,0,0,1,.16,20.49,31.85,31.85,0,0,1-11.42,17,35.54,35.54,0,0,1-19.15,7.54,26.89,26.89,0,0,1-10.3-1.32,27.51,27.51,0,0,1-9-5.16,27.56,27.56,0,0,0,9,5.24A27.1,27.1,0,0,0,349.43,259a35.81,35.81,0,0,0,19.35-7.44,32.29,32.29,0,0,0,11.71-17.1,36.54,36.54,0,0,0,0-20.85A29.1,29.1,0,0,0,375.64,204.18Z"></path></g><path d="M358,259.31c-.89.13-1.78.23-2.69.29a37.22,37.22,0,0,1-9.65-.57,36.82,36.82,0,0,1-14.54-6.25,37.32,37.32,0,0,1-9.12-9.34,36.67,36.67,0,0,1-5.86-14.71,32,32,0,0,1-.42-3.44,37.54,37.54,0,0,1,.56-9.63,36.95,36.95,0,0,1,12.24-21.08,32.49,32.49,0,0,1,13.26,9.74s16.54-12,29.74,2.39C383.14,219.34,381,240.14,358,259.31Z" style="opacity:0.2"></path><rect x="244.48" y="227.97" width="3.97" height="139.5" transform="translate(-1.37 1.14) rotate(-0.26)" style="fill:#263238"></rect><rect x="244.47" y="227.98" width="3.97" height="139.49" transform="translate(-1.36 1.13) rotate(-0.26)" style="fill:#fff;opacity:0.2;isolation:isolate"></rect><path d="M248.12,228l.18,38.16c-1.36-.8-2.69-1.63-4-2.46L244.15,228Z" style="opacity:0.2;isolation:isolate"></path><path d="M246.26,254.25v0c-2.64,0-6.55-1.78-10.79-4.75a64,64,0,0,1-8.33-7h0c-9.29-9.23-17.09-22.14-13.38-32.16,3-8.15,9.09-11.31,15.25-11.33a20.89,20.89,0,0,1,9.85,2.54,17,17,0,0,1,7.21,7c2.94-6,11.43-10.55,19.24-9.56h0c5.34.68,10.35,3.95,13.06,11.05C285,227.49,256.38,254.2,246.26,254.25Z" style="fill:#263238"></path><path d="M278.37,210c-2.7-7.1-7.71-10.36-13.05-11.05h0c-7.82-1-16.3,3.52-19.24,9.56-2.71-5.43-9.93-9.57-17.06-9.54-6.16,0-12.24,3.18-15.26,11.32-3.71,10,4.1,22.94,13.38,32.17h0c7,6.95,14.79,11.81,19.14,11.79v0C256.38,254.2,285,227.49,278.37,210ZM246.24,250.4c-2.48,1.44-22.41-12.75-27.67-25.75s2.15-23.52,12.73-23S246,212.29,246,212.29s9.58-15.19,20.41-8.64a15.5,15.5,0,0,1,7.33,13.91,18.8,18.8,0,0,0-1.41-3.45,16.78,16.78,0,0,0-3.43-4.36,13.93,13.93,0,0,0-4.89-2.84,13.46,13.46,0,0,0-11.06,1.4,24.37,24.37,0,0,0-6.95,6.45,28.06,28.06,0,0,0-5.28-4.56,20.9,20.9,0,0,0-3.83-2,20.35,20.35,0,0,0-2.08-.71,18.34,18.34,0,0,0-2.19-.41l-1.12-.11a11.66,11.66,0,0,0-1.18,0,8.74,8.74,0,0,0-2.36.51,9.07,9.07,0,0,0-3.78,2.82,14.28,14.28,0,0,0-2.83,8.31,19.65,19.65,0,0,0,1.56,8.46,18.93,18.93,0,0,0,2.11,3.76c.8,1.16,1.66,2.26,2.55,3.33a71.18,71.18,0,0,0,12.17,11.29,39.9,39.9,0,0,0,3.53,2.33,12.47,12.47,0,0,0,2.1,1l.34.1.18.05.08,0,.16,0a3.34,3.34,0,0,0,.64,0l.43-.11a5.15,5.15,0,0,0,1.22-.57,24.32,24.32,0,0,0,3.43-2.66c1-.94,2-1.91,3-2.9,1.92-2,3.75-4,5.49-6.17a53.46,53.46,0,0,0,4.84-6.77,16.93,16.93,0,0,0,1-2,7,7,0,0,0,.4-1.12,7.21,7.21,0,0,0,.2-1.19,10.71,10.71,0,0,0-.46-4.52,9.34,9.34,0,0,0-2.54-3.89,8.78,8.78,0,0,0-4.22-2.07,6.46,6.46,0,0,0-1.16-.15,5.55,5.55,0,0,0-1.22,0,5.28,5.28,0,0,0-1.21.21,5.56,5.56,0,0,0-1.11.37,16.21,16.21,0,0,0-3.78,2.29,33.22,33.22,0,0,0-5.09,5.18,44.12,44.12,0,0,0-6.19-4.5,13.88,13.88,0,0,0-4.31-1.78,4,4,0,0,0-2.76.37,2.87,2.87,0,0,0-1.08,1.13,4.22,4.22,0,0,0-.27.72c0,.23-.07.47-.09.7a6.79,6.79,0,0,0,.42,2.4,14.39,14.39,0,0,0,.88,2.09,31.66,31.66,0,0,0,2.27,3.77,50.48,50.48,0,0,0,5.6,6.7,28.33,28.33,0,0,0,3.33,2.91,8.29,8.29,0,0,0,2.06,1.13,3.89,3.89,0,0,0,2.53-.08,11.79,11.79,0,0,0,3.83-2.42,21.74,21.74,0,0,0,3-3.26,13.15,13.15,0,0,0,2.09-3.89,3.8,3.8,0,0,0,.15-1.17,1.74,1.74,0,0,0-.5-1.22,3,3,0,0,0-2.36-.48,11.08,11.08,0,0,0-4,1.9,26.46,26.46,0,0,0-3.25,2.72,17.93,17.93,0,0,1-2.93-1.49,9.75,9.75,0,0,1-1.35-1,4.63,4.63,0,0,1-1-1.34,4.31,4.31,0,0,0,1,1.39,8.67,8.67,0,0,0,1.31,1.1,17.51,17.51,0,0,0,3,1.68l.08,0,.09-.07a29.64,29.64,0,0,1,3.39-2.61,10.43,10.43,0,0,1,3.81-1.67,2.32,2.32,0,0,1,1.76.36c.35.34.29,1,.09,1.66a12.25,12.25,0,0,1-2.08,3.56,20.71,20.71,0,0,1-2.92,3,10.58,10.58,0,0,1-3.5,2.07,2.61,2.61,0,0,1-1.72,0,7.44,7.44,0,0,1-1.67-1,27.41,27.41,0,0,1-3.09-2.83,49.83,49.83,0,0,1-5.28-6.59,30.46,30.46,0,0,1-2.08-3.62,13.51,13.51,0,0,1-.75-1.87,5.43,5.43,0,0,1-.29-1.79c.07-1,.79-1.37,2-1.13a12.28,12.28,0,0,1,3.62,1.61,45.58,45.58,0,0,1,6.63,5.14l.88.81.76-1a34.16,34.16,0,0,1,5.51-5.57,13.42,13.42,0,0,1,3.21-1.9,5.42,5.42,0,0,1,3.33-.28,6.29,6.29,0,0,1,3,1.52,6.76,6.76,0,0,1,1.81,2.86,8.1,8.1,0,0,1,.31,3.47,5.2,5.2,0,0,1-.14.81,5.45,5.45,0,0,1-.29.78,17.41,17.41,0,0,1-.86,1.65,56.45,56.45,0,0,1-4.66,6.41c-1.7,2.06-3.49,4.06-5.36,6-.93,1-1.89,1.89-2.87,2.77a22.23,22.23,0,0,1-3,2.34,3.67,3.67,0,0,1-.62.3h0l-.15,0a10.2,10.2,0,0,1-1.57-.77,37.42,37.42,0,0,1-3.28-2.19,70.27,70.27,0,0,1-11.7-10.82,37.63,37.63,0,0,1-2.41-3.12,16.28,16.28,0,0,1-1.87-3.28A17.09,17.09,0,0,1,224,218.7a12,12,0,0,1,2.22-6.82,6.33,6.33,0,0,1,2.65-2,6.72,6.72,0,0,1,3.43-.31c5,.58,9.55,3.95,12.83,7.8l1.05,1.23.87-1.29a23.81,23.81,0,0,1,7-7.14,11.35,11.35,0,0,1,9.36-1.41,12.14,12.14,0,0,1,4.27,2.37,15.49,15.49,0,0,1,3.14,3.83,16.86,16.86,0,0,1,1.77,4.66,10.56,10.56,0,0,1-.26,4.85c-.05.18-.11.35-.16.53C269.12,232.77,261.33,241.69,246.24,250.4Z" style="fill:#fff;opacity:0.4;isolation:isolate"></path><path d="M246.27,254.25v0c-4.35,0-12.16-4.84-19.14-11.79.42.33,14,11.07,19.13,10.68s23.42-13.74,28.66-27.25,2-23.49-9.59-26.95c5.34.69,10.35,3.95,13.05,11.05C285,227.49,256.38,254.2,246.27,254.25Z" style="opacity:0.2"></path><path d="M223.19,234.72s-10.77-12.4-6.39-25.37,22-9.2,24.2-3.78c0,0-11-7.23-17.58.94S223.19,234.72,223.19,234.72Z" style="fill:#fff;opacity:0.2;isolation:isolate"></path><path d="M246.26,254.25v0c-2.64,0-6.55-1.78-10.79-4.75-12.73-25.78-3.38-41.11,3.38-48a17,17,0,0,1,7.21,7c2.94-6,11.43-10.55,19.24-9.56h0c5.34.68,10.35,3.95,13.06,11.05C285,227.49,256.38,254.2,246.26,254.25Z" style="opacity:0.2"></path><rect x="294.96" y="234.17" width="3.97" height="139.5" transform="translate(13.04 -12.22) rotate(2.41)" style="fill:#263238"></rect><rect x="227.2" y="301.93" width="139.49" height="3.97" transform="matrix(0.04, -1, 1, 0.04, -19.2, 587.81)" style="fill:#fff;opacity:0.2;isolation:isolate"></rect><path d="M301.86,234.31l-1.61,38.14c-1.31-.87-2.61-1.76-3.86-2.65l1.5-35.65Z" style="opacity:0.2;isolation:isolate"></path><circle cx="299.82" cy="235.57" r="20.97" transform="translate(-80.74 259.16) rotate(-41.7)" style="fill:#263238"></circle><path d="M322.62,236.53a22.41,22.41,0,0,1-.75,4.94,2,2,0,0,1-2.06,1.5l-40.53-1.7a2.06,2.06,0,0,1-1.93-1.68,23.13,23.13,0,0,1,.42-9.93,2.06,2.06,0,0,1,2.07-1.5l40.51,1.7a2,2,0,0,1,1.93,1.68A21.68,21.68,0,0,1,322.62,236.53Z" style="fill:#263238"></path><path d="M283.72,226.82s4-11.83,19.27-11.27c0,0-9.74,2.28-13.55,11.51Z" style="fill:#fff;opacity:0.2;isolation:isolate"></path><path d="M322.62,236.53a22.41,22.41,0,0,1-.75,4.94,2,2,0,0,1-2.06,1.5l-40.53-1.7a2.06,2.06,0,0,1-1.93-1.68,23.13,23.13,0,0,1,.42-9.93,2.06,2.06,0,0,1,2.07-1.5l40.51,1.7a2,2,0,0,1,1.93,1.68A21.68,21.68,0,0,1,322.62,236.53Z" style="fill:#fff;opacity:0.2;isolation:isolate"></path><path d="M279.7,229.46,316.62,231s-21.06,4.37-37.75,3.67A20.73,20.73,0,0,1,279.7,229.46Z" style="fill:#fff;opacity:0.2;isolation:isolate"></path><rect x="271.31" y="233.07" width="3.97" height="139.5" style="fill:#263238"></rect><rect x="271.31" y="233.07" width="3.97" height="139.49" style="fill:#fff;opacity:0.30000000000000004;isolation:isolate"></rect><path d="M275.28,233.07v38.17c-1.35-.81-2.69-1.65-4-2.48V233.07Z" style="opacity:0.2;isolation:isolate"></path><path d="M236.26,224.38a37.06,37.06,0,0,1,18.49-32.08,36.63,36.63,0,0,1,15.09-4.79,32.8,32.8,0,0,1,3.45-.17,36.94,36.94,0,0,1,23.65,8.52,37.46,37.46,0,0,1,8.43,10,36.82,36.82,0,0,1,4.79,15.1c.11,1.12.17,2.27.17,3.44a36.53,36.53,0,0,1-1.26,9.58A36.91,36.91,0,0,1,301.8,248a37.42,37.42,0,0,1-10,8.43,36.88,36.88,0,0,1-15.09,4.79c-1.13.11-2.28.16-3.45.16a37.06,37.06,0,0,1-23.64-8.52,37.42,37.42,0,0,1-8.43-10,36.74,36.74,0,0,1-4.8-15.09C236.31,226.7,236.26,225.54,236.26,224.38Z" style="fill:#41783B"></path><path d="M310.33,224.38a37,37,0,0,1-33.59,36.87c-1.13.11-2.28.17-3.45.17a37,37,0,0,1-36.87-33.58c-.11-1.14-.16-2.3-.16-3.46a37.25,37.25,0,0,1,1.24-9.57,35.55,35.55,0,0,1,1.83-5.23,37.08,37.08,0,0,1,15.42-17.27,36.64,36.64,0,0,1,15.09-4.8c1.13-.11,2.29-.17,3.45-.17a37.33,37.33,0,0,1,9.58,1.25A37,37,0,0,1,302.8,202a34.38,34.38,0,0,1,2.57,3.85,36.73,36.73,0,0,1,4.79,15.09C310.27,222.07,310.33,223.21,310.33,224.38Z" style="fill:#fff;opacity:0.6000000000000001;isolation:isolate"></path><path d="M249.65,252.89c9.19-2.63,20.3-9.72,23.53-28.34a.19.19,0,0,0,0-.08v0s0,0,0,0a0,0,0,0,0,0,0v-.06a0,0,0,0,0,0,0h0v0a.36.36,0,0,0,0-.1c0-.09,0-.17,0-.25v.44s0,.05,0,.06v.07c0,3.77-.8,24.67-9.57,35.64A36.73,36.73,0,0,1,249.65,252.89Z" style="fill:#41783B"></path><path d="M273.29,224.81v-.28a.13.13,0,0,1,0-.06s0,0,0,0a0,0,0,0,1,0,0v0a.06.06,0,0,1,0-.06v0h0c.06-3.71.79-24.68,9.57-35.68a36.86,36.86,0,0,1,14.07,7.28c-9.2,2.63-20.31,9.72-23.54,28.34,0,0,0,0,0,.08h0v0a.07.07,0,0,0,0,.05h0v.08a.52.52,0,0,0,0,.11C273.32,224.66,273.31,224.74,273.29,224.81Z" style="fill:#41783B"></path><path d="M237.51,214.8a37,37,0,0,1,7.28-14.08c2.62,9.21,9.72,20.31,28.33,23.54l.08,0h.29l.23.05h-.54C269.48,224.31,248.5,223.58,237.51,214.8Z" style="fill:#41783B"></path><path d="M272.86,224.37h.56c3.72.06,24.67.8,35.66,9.57A37.09,37.09,0,0,1,301.81,248c-2.64-9.2-9.72-20.32-28.36-23.56h-.08s0,0,0,0h-.15l-.11,0Z" style="fill:#41783B"></path><path d="M236.42,227.83c8.36,4.63,21.24,7.46,36.68-3.41l0,0h0l0,0h0a0,0,0,0,0,0,0h0l.1-.07.2-.13s-.1.1-.2.2h0l0,0h0s0,0,0,0h0a.1.1,0,0,1,0,.05h0l0,0-.07.07c-2.87,2.75-18,16.82-31.91,18.38A36.69,36.69,0,0,1,236.42,227.83Z" style="fill:#41783B"></path><path d="M273,224.69l.15-.16.07-.07,0,0h0a.1.1,0,0,0,0-.05h0s0,0,0,0h0l0,0h0c2.7-2.62,18-16.87,32-18.43a36.77,36.77,0,0,1,4.79,15.09c-8.36-4.64-21.23-7.48-36.67,3.39l-.06.05h0l0,0h-.1l-.09.06Z" style="fill:#41783B"></path><path d="M269.85,187.51c-4.64,8.35-7.48,21.23,3.4,36.68l.05.06h0l0,0s0,0,0,0h0s0,0,0,0h0l.05.09c.05.07.11.14.15.21l-.2-.2,0,0,0,0,0,0,0,0h0l-.05,0h0s0,0,0,0h0s0,0,0,0h0l-.06-.06c-2.76-2.87-16.82-18.05-18.38-31.92A36.58,36.58,0,0,1,269.85,187.51Z" style="fill:#41783B"></path><path d="M273,224.07l.16.15.06.06h0s0,0,0,0h0s0,0,0,0h0l.05,0h0l0,0h0a0,0,0,0,0,0,0h0l0,0c2.62,2.71,16.87,18,18.43,32a36.83,36.83,0,0,1-15.08,4.79c4.63-8.36,7.46-21.23-3.41-36.67a.21.21,0,0,0,0-.06,0,0,0,0,0,0,0v0l0-.05h0s0,0,0,0,0,0,0,0h0l-.07-.11Z" style="fill:#41783B"></path><g style="opacity:0.2"><path d="M236.43,227.83a36.74,36.74,0,0,0,4.8,15.09,37.38,37.38,0,0,0,8.42,10,36.87,36.87,0,0,0,7.23,4.69,34.82,34.82,0,0,1-4.29-3.06,36.26,36.26,0,0,1-8.15-9.62,35.65,35.65,0,0,1-4.63-14.58c-.11-1.1-.16-2.22-.16-3.35a35.76,35.76,0,0,1,8.23-22.84,36.46,36.46,0,0,1,9.64-8.14,35.52,35.52,0,0,1,14.58-4.64c1.1-.1,2.21-.16,3.33-.16a35.67,35.67,0,0,1,22.85,8.24,36.16,36.16,0,0,1,8.15,9.64,35.08,35.08,0,0,1,2.62,5.62,36.65,36.65,0,0,0-3.67-8.85,37.5,37.5,0,0,0-8.44-10,36.9,36.9,0,0,0-23.64-8.52c-1.17,0-2.32,0-3.45.16a36.74,36.74,0,0,0-15.09,4.8,37.16,37.16,0,0,0-17.25,22.5,36.88,36.88,0,0,0-1.25,9.57C236.26,225.54,236.32,226.7,236.43,227.83Z"></path><path d="M297.52,207.59c-.47-.76-1-1.43-1.58-2.14s-1.16-1.35-1.82-1.95a26.09,26.09,0,0,0-4.17-3.3,37.92,37.92,0,0,0-9.57-4.5,27.82,27.82,0,0,0-10.55-1.1,25.91,25.91,0,0,0-5.23,1,26.89,26.89,0,0,0-5,2,26.5,26.5,0,0,0-4.44,3,27,27,0,0,0-3.79,3.77A32.93,32.93,0,0,0,243.91,224a27.48,27.48,0,0,0,1.58,10.58,21.55,21.55,0,0,0,2.42,4.82,21,21,0,0,0,3.51,4.13,26.26,26.26,0,0,0,20.07,6.33,22.79,22.79,0,0,0,10.19-3.57,20.29,20.29,0,0,0,2.19-1.62c.7-.59,1.33-1.25,2-1.9a23.38,23.38,0,0,0,3.14-4.45,22.59,22.59,0,0,0,2.8-10.47,20.06,20.06,0,0,0-2.56-10.6,18,18,0,0,0-1.58-2.3,17.36,17.36,0,0,0-4.28-3.6,15.93,15.93,0,0,0-2.55-1.18,18.53,18.53,0,0,0-11-.43,16.08,16.08,0,0,0-5.08,2.39,18.68,18.68,0,0,0-3.95,3.94,17.54,17.54,0,0,0-2.58,5,11.86,11.86,0,0,0-.55,5.72,10.85,10.85,0,0,0,2.49,5.3c.34.34.7.67,1.05,1,.18.17.35.34.54.49l.59.41,1.18.8c.42.22.85.48,1.29.66a19.77,19.77,0,0,0,5.4,1.47,16.82,16.82,0,0,0,5.65-.19,8.8,8.8,0,0,0,5.2-3,8.92,8.92,0,0,0,1.71-5.78,9.77,9.77,0,0,0-1.88-5.7,6.59,6.59,0,0,0-2.55-2,7,7,0,0,0-7.12,1,3.76,3.76,0,0,0-.87.77l-.09.08h0a3.86,3.86,0,1,0,6.35.52,3.61,3.61,0,0,1,2.11,1.38A7.25,7.25,0,0,1,280.1,228a5.58,5.58,0,0,1-4.8,6.21,16.32,16.32,0,0,1-9.46-1,11.39,11.39,0,0,1-1-.52l-1-.67-.5-.33c-.15-.12-.28-.26-.43-.39l-.85-.8a8.3,8.3,0,0,1-1.94-4,9.4,9.4,0,0,1,.42-4.62,15.42,15.42,0,0,1,2.2-4.31,16.36,16.36,0,0,1,3.4-3.45,13.5,13.5,0,0,1,4.34-2.08,16.29,16.29,0,0,1,9.65.29,12.66,12.66,0,0,1,4.2,2.4,14.7,14.7,0,0,1,1.75,1.69,16.22,16.22,0,0,1,1.39,2,18.08,18.08,0,0,1,2.37,9.51,20.66,20.66,0,0,1-2.49,9.6,20.41,20.41,0,0,1-16,10.73,24.62,24.62,0,0,1-18.83-5.77,19.7,19.7,0,0,1-3.3-3.81,20.25,20.25,0,0,1-2.3-4.49,26.2,26.2,0,0,1-1.58-10,31.7,31.7,0,0,1,7.06-18.9,25.8,25.8,0,0,1,3.61-3.63,24,24,0,0,1,4.23-2.89,25,25,0,0,1,4.72-2,24.75,24.75,0,0,1,5-1,26.57,26.57,0,0,1,10.18,1,36.9,36.9,0,0,1,9.38,4.31,24.9,24.9,0,0,1,4.06,3.17c.64.57,1.18,1.24,1.77,1.86s1.09,1.34,1.55,2.06a28.54,28.54,0,0,1,4.14,9.43,36,36,0,0,1-1.3,20.45A31.84,31.84,0,0,1,287.11,254a35.6,35.6,0,0,1-19.64,6.15,27,27,0,0,1-10.18-2,27.58,27.58,0,0,1-8.65-5.8,27.62,27.62,0,0,0,8.62,5.88,27.29,27.29,0,0,0,10.21,2.14,35.89,35.89,0,0,0,19.83-6,32.34,32.34,0,0,0,12.9-16.23,36.51,36.51,0,0,0,1.49-20.79A29.24,29.24,0,0,0,297.52,207.59Z"></path></g><path d="M310.33,224.38a37,37,0,0,1-13.25,28.39,56.24,56.24,0,0,1-5.51-18.52c-2.67-24.76,7.48-30.85,11.23-32.25a34.38,34.38,0,0,1,2.57,3.85,36.73,36.73,0,0,1,4.79,15.09C310.27,222.07,310.33,223.21,310.33,224.38Z" style="opacity:0.2"></path><path d="M246.41,249.85a36.8,36.8,0,0,1-10-22c-.11-1.14-.16-2.3-.16-3.46a37.25,37.25,0,0,1,1.24-9.57,35.55,35.55,0,0,1,1.83-5.23c3.66,4.41,8.75,12.91,9.43,26.62A33.94,33.94,0,0,1,246.41,249.85Z" style="opacity:0.2"></path><rect x="322.24" y="233.14" width="3.97" height="139.5" transform="translate(35.93 -34.38) rotate(6.42)" style="fill:#263238"></rect><rect x="254.47" y="300.9" width="139.49" height="3.97" transform="translate(-13.04 591.18) rotate(-83.57)" style="fill:#fff;opacity:0.2;isolation:isolate"></rect><path d="M334,233.8l-4.27,37.93c-1.25-1-2.48-1.94-3.67-2.91l4-35.46Z" style="opacity:0.2;isolation:isolate"></path><path d="M329.09,259.68v0l0,0c-4.31-.48-11.51-6.22-17.63-13.93h0c-8.15-10.25-14.4-24-9.55-33.51,4-7.74,10.35-10.16,16.47-9.47,7.09.8,13.78,5.76,15.83,11.46,3.63-5.65,12.58-9.14,20.23-7.25h0c5.22,1.31,9.82,5.13,11.68,12.49C370.72,237.62,339.15,260.82,329.09,259.68Z" style="fill:#41783B"></path><path d="M329.52,255.86c-2.64,1.14-20.78-15.28-24.49-28.8s4.88-23.11,15.33-21.38S333.71,218,333.71,218,345,204,355,211.78,365.43,240.4,329.52,255.86Z" style="fill:#fff;opacity:0.6000000000000001;isolation:isolate"></path><path d="M360.17,226.25a18.27,18.27,0,0,0-1.23-5.34,17,17,0,0,0-2.9-4.73,14,14,0,0,0-4.52-3.39,13.43,13.43,0,0,0-11.15.11,24,24,0,0,0-7.65,5.59,28.8,28.8,0,0,0-4.72-5.15,21,21,0,0,0-3.56-2.45,18.14,18.14,0,0,0-2-.95,17,17,0,0,0-2.13-.67l-1.09-.23a11.51,11.51,0,0,0-1.18-.13,9.28,9.28,0,0,0-2.4.24,9,9,0,0,0-4.09,2.36,14.33,14.33,0,0,0-3.77,7.92A19.69,19.69,0,0,0,310,232c.66,1.24,1.38,2.44,2.15,3.6a70.92,70.92,0,0,0,10.76,12.63,41.31,41.31,0,0,0,3.24,2.73,12.39,12.39,0,0,0,2,1.24l.33.14.16.07.09,0,.15,0a3.63,3.63,0,0,0,.64.06l.43-.06a5.58,5.58,0,0,0,1.29-.42,24.8,24.8,0,0,0,3.72-2.25c1.14-.81,2.23-1.66,3.3-2.53q3.21-2.61,6.17-5.49a54,54,0,0,0,5.6-6.16,17.42,17.42,0,0,0,1.21-1.82,8.2,8.2,0,0,0,.53-1.07,7.9,7.9,0,0,0,.33-1.15,10.57,10.57,0,0,0,.07-4.55,9.39,9.39,0,0,0-2.07-4.16,8.65,8.65,0,0,0-3.94-2.54,6,6,0,0,0-1.14-.29,5.22,5.22,0,0,0-1.21-.13,5,5,0,0,0-1.23.07,5.33,5.33,0,0,0-1.15.24,15.83,15.83,0,0,0-4,1.82,34.28,34.28,0,0,0-5.65,4.56,44.08,44.08,0,0,0-5.63-5.19,13.81,13.81,0,0,0-4.07-2.26,4,4,0,0,0-2.79,0,2.9,2.9,0,0,0-1.2,1,3.13,3.13,0,0,0-.35.68,5.23,5.23,0,0,0-.18.68,6.91,6.91,0,0,0,.14,2.43,15.25,15.25,0,0,0,.63,2.18,32.31,32.31,0,0,0,1.82,4,51,51,0,0,0,4.78,7.31,27.59,27.59,0,0,0,3,3.27,8.41,8.41,0,0,0,1.91,1.37,3.85,3.85,0,0,0,2.53.21,11.62,11.62,0,0,0,4.08-2,21.78,21.78,0,0,0,3.32-2.89,12.88,12.88,0,0,0,2.53-3.62,4.22,4.22,0,0,0,.29-1.15,1.73,1.73,0,0,0-.37-1.26,2.94,2.94,0,0,0-2.28-.75,11.14,11.14,0,0,0-4.19,1.42,27,27,0,0,0-3.54,2.32,18.61,18.61,0,0,1-2.74-1.82,9.56,9.56,0,0,1-1.21-1.17,4.36,4.36,0,0,1-.86-1.45,4.31,4.31,0,0,0,.8,1.49,9.22,9.22,0,0,0,1.17,1.25,18.54,18.54,0,0,0,2.77,2l.08,0,.09-.06a29.69,29.69,0,0,1,3.67-2.2,10.43,10.43,0,0,1,4-1.22,2.31,2.31,0,0,1,1.7.57c.31.38.17,1.07-.1,1.66a12.18,12.18,0,0,1-2.48,3.29,20.69,20.69,0,0,1-3.26,2.64,10.62,10.62,0,0,1-3.7,1.65,2.66,2.66,0,0,1-1.72-.17,7.57,7.57,0,0,1-1.54-1.2,28.87,28.87,0,0,1-2.74-3.17,49.71,49.71,0,0,1-4.48-7.17,29.81,29.81,0,0,1-1.64-3.83,12.67,12.67,0,0,1-.52-1.94,5.17,5.17,0,0,1-.08-1.82c.18-1,.94-1.26,2.13-.88a12.2,12.2,0,0,1,3.41,2,45,45,0,0,1,6,5.88l.78.9.86-.86a35,35,0,0,1,6.12-4.88,13.52,13.52,0,0,1,3.41-1.52,5.45,5.45,0,0,1,3.34.11,6.29,6.29,0,0,1,2.82,1.86,6.93,6.93,0,0,1,1.47,3.06,8,8,0,0,1-.1,3.48,4.92,4.92,0,0,1-.23.78,5.21,5.21,0,0,1-.38.74,15.69,15.69,0,0,1-1,1.55,57.49,57.49,0,0,1-5.37,5.82c-1.93,1.85-3.94,3.63-6,5.31-1,.84-2.09,1.65-3.17,2.41a21.43,21.43,0,0,1-3.26,2,3.46,3.46,0,0,1-.65.23h0l-.14-.06a10.39,10.39,0,0,1-1.47-1,39.34,39.34,0,0,1-3-2.55,70.79,70.79,0,0,1-10.37-12.11c-.73-1.1-1.41-2.23-2-3.38a16.51,16.51,0,0,1-1.47-3.48,17,17,0,0,1-.51-7.43,12,12,0,0,1,3-6.52,6.36,6.36,0,0,1,2.87-1.72,6.84,6.84,0,0,1,3.44.09c4.87,1.15,9,5,11.83,9.25l.9,1.33,1-1.17a23.71,23.71,0,0,1,7.77-6.28,11.34,11.34,0,0,1,9.46-.31,12,12,0,0,1,4,2.85,15.07,15.07,0,0,1,2.67,4.17,16.48,16.48,0,0,1,1.22,4.84,10.45,10.45,0,0,1-.82,4.78,26.78,26.78,0,0,1-2.38,4.52,42.67,42.67,0,0,1-3,4.21,79.26,79.26,0,0,1-7.1,7.69,94.75,94.75,0,0,1-8,6.85c-1.4,1.06-2.82,2.1-4.31,3-.74.48-1.5.92-2.28,1.33a6,6,0,0,1-2.5.78,6,6,0,0,0,2.55-.68c.81-.37,1.59-.78,2.36-1.22q2.3-1.33,4.46-2.87a99.57,99.57,0,0,0,8.27-6.63,79.25,79.25,0,0,0,7.46-7.54,34.9,34.9,0,0,0,5.86-8.94A11.9,11.9,0,0,0,360.17,226.25Z" style="fill:#41783B"></path><path d="M360.17,226.25a18.27,18.27,0,0,0-1.23-5.34,17,17,0,0,0-2.9-4.73,14,14,0,0,0-4.52-3.39,13.43,13.43,0,0,0-11.15.11,24,24,0,0,0-7.65,5.59,28.8,28.8,0,0,0-4.72-5.15,21,21,0,0,0-3.56-2.45,18.14,18.14,0,0,0-2-.95,17,17,0,0,0-2.13-.67l-1.09-.23a11.51,11.51,0,0,0-1.18-.13,9.28,9.28,0,0,0-2.4.24,9,9,0,0,0-4.09,2.36,14.33,14.33,0,0,0-3.77,7.92A19.69,19.69,0,0,0,310,232c.66,1.24,1.38,2.44,2.15,3.6a70.92,70.92,0,0,0,10.76,12.63,41.31,41.31,0,0,0,3.24,2.73,12.39,12.39,0,0,0,2,1.24l.33.14.16.07.09,0,.15,0a3.63,3.63,0,0,0,.64.06l.43-.06a5.58,5.58,0,0,0,1.29-.42,24.8,24.8,0,0,0,3.72-2.25c1.14-.81,2.23-1.66,3.3-2.53q3.21-2.61,6.17-5.49a54,54,0,0,0,5.6-6.16,17.42,17.42,0,0,0,1.21-1.82,8.2,8.2,0,0,0,.53-1.07,7.9,7.9,0,0,0,.33-1.15,10.57,10.57,0,0,0,.07-4.55,9.39,9.39,0,0,0-2.07-4.16,8.65,8.65,0,0,0-3.94-2.54,6,6,0,0,0-1.14-.29,5.22,5.22,0,0,0-1.21-.13,5,5,0,0,0-1.23.07,5.33,5.33,0,0,0-1.15.24,15.83,15.83,0,0,0-4,1.82,34.28,34.28,0,0,0-5.65,4.56,44.08,44.08,0,0,0-5.63-5.19,13.81,13.81,0,0,0-4.07-2.26,4,4,0,0,0-2.79,0,2.9,2.9,0,0,0-1.2,1,3.13,3.13,0,0,0-.35.68,5.23,5.23,0,0,0-.18.68,6.91,6.91,0,0,0,.14,2.43,15.25,15.25,0,0,0,.63,2.18,32.31,32.31,0,0,0,1.82,4,51,51,0,0,0,4.78,7.31,27.59,27.59,0,0,0,3,3.27,8.41,8.41,0,0,0,1.91,1.37,3.85,3.85,0,0,0,2.53.21,11.62,11.62,0,0,0,4.08-2,21.78,21.78,0,0,0,3.32-2.89,12.88,12.88,0,0,0,2.53-3.62,4.22,4.22,0,0,0,.29-1.15,1.73,1.73,0,0,0-.37-1.26,2.94,2.94,0,0,0-2.28-.75,11.14,11.14,0,0,0-4.19,1.42,27,27,0,0,0-3.54,2.32,18.61,18.61,0,0,1-2.74-1.82,9.56,9.56,0,0,1-1.21-1.17,4.36,4.36,0,0,1-.86-1.45,4.31,4.31,0,0,0,.8,1.49,9.22,9.22,0,0,0,1.17,1.25,18.54,18.54,0,0,0,2.77,2l.08,0,.09-.06a29.69,29.69,0,0,1,3.67-2.2,10.43,10.43,0,0,1,4-1.22,2.31,2.31,0,0,1,1.7.57c.31.38.17,1.07-.1,1.66a12.18,12.18,0,0,1-2.48,3.29,20.69,20.69,0,0,1-3.26,2.64,10.62,10.62,0,0,1-3.7,1.65,2.66,2.66,0,0,1-1.72-.17,7.57,7.57,0,0,1-1.54-1.2,28.87,28.87,0,0,1-2.74-3.17,49.71,49.71,0,0,1-4.48-7.17,29.81,29.81,0,0,1-1.64-3.83,12.67,12.67,0,0,1-.52-1.94,5.17,5.17,0,0,1-.08-1.82c.18-1,.94-1.26,2.13-.88a12.2,12.2,0,0,1,3.41,2,45,45,0,0,1,6,5.88l.78.9.86-.86a35,35,0,0,1,6.12-4.88,13.52,13.52,0,0,1,3.41-1.52,5.45,5.45,0,0,1,3.34.11,6.29,6.29,0,0,1,2.82,1.86,6.93,6.93,0,0,1,1.47,3.06,8,8,0,0,1-.1,3.48,4.92,4.92,0,0,1-.23.78,5.21,5.21,0,0,1-.38.74,15.69,15.69,0,0,1-1,1.55,57.49,57.49,0,0,1-5.37,5.82c-1.93,1.85-3.94,3.63-6,5.31-1,.84-2.09,1.65-3.17,2.41a21.43,21.43,0,0,1-3.26,2,3.46,3.46,0,0,1-.65.23h0l-.14-.06a10.39,10.39,0,0,1-1.47-1,39.34,39.34,0,0,1-3-2.55,70.79,70.79,0,0,1-10.37-12.11c-.73-1.1-1.41-2.23-2-3.38a16.51,16.51,0,0,1-1.47-3.48,17,17,0,0,1-.51-7.43,12,12,0,0,1,3-6.52,6.36,6.36,0,0,1,2.87-1.72,6.84,6.84,0,0,1,3.44.09c4.87,1.15,9,5,11.83,9.25l.9,1.33,1-1.17a23.71,23.71,0,0,1,7.77-6.28,11.34,11.34,0,0,1,9.46-.31,12,12,0,0,1,4,2.85,15.07,15.07,0,0,1,2.67,4.17,16.48,16.48,0,0,1,1.22,4.84,10.45,10.45,0,0,1-.82,4.78,26.78,26.78,0,0,1-2.38,4.52,42.67,42.67,0,0,1-3,4.21,79.26,79.26,0,0,1-7.1,7.69,94.75,94.75,0,0,1-8,6.85c-1.4,1.06-2.82,2.1-4.31,3-.74.48-1.5.92-2.28,1.33a6,6,0,0,1-2.5.78,6,6,0,0,0,2.55-.68c.81-.37,1.59-.78,2.36-1.22q2.3-1.33,4.46-2.87a99.57,99.57,0,0,0,8.27-6.63,79.25,79.25,0,0,0,7.46-7.54,34.9,34.9,0,0,0,5.86-8.94A11.9,11.9,0,0,0,360.17,226.25Z" style="opacity:0.2"></path><path d="M329.09,259.68v0l0,0c-4.31-.48-11.51-6.22-17.63-13.93.38.37,12.63,12.62,17.76,12.84s24.86-10.93,31.64-23.73,4.68-23.1-6.39-27.89c5.22,1.31,9.82,5.13,11.68,12.49C370.72,237.62,339.15,260.82,329.09,259.68Z" style="opacity:0.2"></path><path d="M308.45,237.61s-9.25-13.57-3.39-26,23-6.57,24.47-.93c0,0-10.11-8.47-17.56-1.11S308.45,237.61,308.45,237.61Z" style="fill:#fff;opacity:0.2;isolation:isolate"></path><rect x="227.86" y="234.01" width="3.97" height="139.5" transform="translate(-41.7 36.62) rotate(-8.36)" style="fill:#263238"></rect><rect x="227.86" y="234.01" width="3.97" height="139.49" transform="translate(-41.7 36.62) rotate(-8.36)" style="fill:#fff;opacity:0.6000000000000001;isolation:isolate"></rect><path d="M221.67,234.46l5.55,37.76c-1.46-.61-2.9-1.24-4.29-1.87L217.75,235Z" style="opacity:0.2;isolation:isolate"></path><circle cx="219.91" cy="236.07" r="20.97" style="fill:#41783B"></circle><circle cx="219.91" cy="236.07" r="20.97" style="opacity:0.2;isolation:isolate"></circle><path d="M242.49,232.76a23.26,23.26,0,0,1,.18,5,2.05,2.05,0,0,1-1.75,1.87l-40.13,5.89a2,2,0,0,1-2.21-1.29,23.15,23.15,0,0,1-1.26-4.83,22.74,22.74,0,0,1-.18-5,2.06,2.06,0,0,1,1.75-1.86l40.12-5.9a2.07,2.07,0,0,1,2.21,1.29A22.66,22.66,0,0,1,242.49,232.76Z" style="fill:#41783B"></path><path d="M202.45,230.49s1.76-12.38,16.83-14.67c0,0-9.15,4.05-11.16,13.84Z" style="fill:#fff;opacity:0.2;isolation:isolate"></path><path d="M199,233.83l36.55-5.37s-19.86,8.23-36.39,10.66A20.64,20.64,0,0,1,199,233.83Z" style="fill:#fff;opacity:0.2;isolation:isolate"></path><path d="M201.25,367.26H389.38a1.9,1.9,0,0,1,1.9,1.9v43.12a0,0,0,0,1,0,0H199.36a0,0,0,0,1,0,0V369.16A1.9,1.9,0,0,1,201.25,367.26Z" style="fill:#fff"></path><rect x="194.78" y="370.21" width="138.71" height="45.11" style="fill:#41783B"></rect><rect x="194.78" y="370.21" width="138.71" height="45.11" style="fill:#fff;opacity:0.7000000000000001;isolation:isolate"></rect><polygon points="408.13 288.43 408.13 415.31 333.5 415.31 333.5 370.21 408.13 288.43" style="fill:#41783B"></polygon><polygon points="408.13 288.43 408.13 415.31 333.5 415.31 333.5 370.21 408.13 288.43" style="fill:#fff;opacity:0.5;isolation:isolate"></polygon><polygon points="408.13 324.8 397.28 363.98 375.69 351.87 375.69 385.56 348.99 381.17 360.82 403.81 348.99 415.31 408.13 415.31 408.13 324.8" style="opacity:0.1;isolation:isolate"></polygon><polygon points="224.36 375.44 238.16 380.98 252.89 375.44 268.28 380.98 295.64 375.44 299.79 382.4 323.93 377.02 314.22 389.21 329.03 395.36 315.65 398.49 323.93 411.52 294.14 404.8 289.12 412.96 272.3 404.8 257.74 409.99 250.52 404.92 227.12 411.52 229.82 402.6 201.01 409.46 209.55 397.33 199.76 391.01 211.05 387.31 205.53 377.02 221.6 380.98 224.36 375.44" style="fill:#41783B"></polygon><path d="M216.77,387.44h3.73v8.16h5v2.89h-8.72Z" style="fill:#fff"></path><path d="M225.92,393c0-3.35,2.63-5.78,6.23-5.78s6.24,2.43,6.24,5.78-2.64,5.78-6.24,5.78S225.92,396.31,225.92,393Zm8.71,0a2.49,2.49,0,1,0-2.48,2.76A2.52,2.52,0,0,0,234.63,393Z" style="fill:#fff"></path><path d="M239.75,387.44h3.73v8.16h5v2.89h-8.72Z" style="fill:#fff"></path><path d="M249.49,387.44h3.73v8.16h5v2.89h-8.72Z" style="fill:#fff"></path><path d="M259.24,387.44H263v11.05h-3.73Z" style="fill:#fff"></path><path d="M275.13,391.61c0,2.56-2,4.17-5,4.17h-1.6v2.71h-3.72V387.44h5.32C273.17,387.44,275.13,389.05,275.13,391.61Zm-3.76,0c0-.81-.49-1.3-1.52-1.3h-1.36v2.59h1.36C270.88,392.9,271.37,392.41,271.37,391.61Z" style="fill:#fff"></path><path d="M276.06,393c0-3.35,2.63-5.78,6.24-5.78s6.23,2.43,6.23,5.78-2.63,5.78-6.23,5.78S276.06,396.31,276.06,393Zm8.72,0a2.49,2.49,0,1,0-2.48,2.76A2.52,2.52,0,0,0,284.78,393Z" style="fill:#fff"></path><path d="M300.25,391.61c0,2.56-2,4.17-5,4.17h-1.59v2.71h-3.73V387.44h5.32C298.29,387.44,300.25,389.05,300.25,391.61Zm-3.76,0c0-.81-.49-1.3-1.51-1.3h-1.36v2.59H295C296,392.9,296.49,392.41,296.49,391.61Z" style="fill:#fff"></path><path d="M300.93,397.61l1.2-2.72a7.53,7.53,0,0,0,3.65,1c1.06,0,1.44-.22,1.44-.6,0-1.39-6.11-.26-6.11-4.39,0-2.05,1.72-3.72,5.14-3.72a8.72,8.72,0,0,1,4.17,1l-1.12,2.7a6.83,6.83,0,0,0-3.08-.82c-1.09,0-1.43.31-1.43.69,0,1.33,6.11.23,6.11,4.3,0,2-1.72,3.73-5.15,3.73A9.91,9.91,0,0,1,300.93,397.61Z" style="fill:#fff"></path></g><g id="freepik--Character--inject-149"><g id="freepik--group--inject-149"><path d="M128.94,280.47s16-1.81,17.37-3.05,8.53-20.37,8.53-20.37,3.66-3.06,4-3.79,0-7.88,0-7.88l-12.81,6.89,4.27,4.43-7.68,13.73c-.49.87-11.29,2.37-11.29,2.37Z" style="fill:#e4897b"></path><path d="M128.94,280.47s16-1.81,17.37-3.05,8.53-20.37,8.53-20.37,3.66-3.06,4-3.79,0-7.88,0-7.88l-12.81,6.89,4.27,4.43-7.68,13.73c-.49.87-11.29,2.37-11.29,2.37Z" style="opacity:0.2;isolation:isolate"></path><rect x="165.54" y="230.31" width="3.97" height="139.5" transform="translate(-105.57 91.44) rotate(-23.45)" style="fill:#263238"></rect><rect x="165.54" y="230.31" width="3.97" height="139.49" transform="translate(-105.57 91.44) rotate(-23.45)" style="fill:#fff;opacity:0.6000000000000001;isolation:isolate"></rect><path d="M141.59,235.28l15.19,35c-1.57-.21-3.12-.44-4.63-.7L138,236.86Z" style="opacity:0.2;isolation:isolate"></path><circle cx="140.31" cy="237.3" r="20.97" transform="translate(-49.24 37.13) rotate(-12.84)" style="fill:#41783B"></circle><circle cx="140.31" cy="237.3" r="20.97" transform="translate(-49.24 37.13) rotate(-12.84)" style="fill:#fff;opacity:0.6000000000000001;isolation:isolate"></circle><path d="M161.24,228.22a22.65,22.65,0,0,1,1.48,4.77,2,2,0,0,1-1.2,2.26l-37.21,16.14a2,2,0,0,1-2.47-.67,22.41,22.41,0,0,1-2.47-4.33,22.82,22.82,0,0,1-1.48-4.79,2.05,2.05,0,0,1,1.2-2.25l37.2-16.14a2,2,0,0,1,2.47.67A22.23,22.23,0,0,1,161.24,228.22Z" style="fill:#41783B"></path><path d="M122,236.46s-1.53-12.41,12.42-18.55c0,0-7.77,6.29-7.16,16.27Z" style="fill:#fff;opacity:0.2;isolation:isolate"></path><path d="M161.24,228.22a22.65,22.65,0,0,1,1.48,4.77,2,2,0,0,1-1.2,2.26l-37.21,16.14a2,2,0,0,1-2.47-.67,22.41,22.41,0,0,1-2.47-4.33,22.82,22.82,0,0,1-1.48-4.79,2.05,2.05,0,0,1,1.2-2.25l37.2-16.14a2,2,0,0,1,2.47.67A22.23,22.23,0,0,1,161.24,228.22Z" style="fill:#fff;opacity:0.7000000000000001;isolation:isolate"></path><path d="M119.53,240.58l33.9-14.7s-17,13.12-32.36,19.77A20.72,20.72,0,0,1,119.53,240.58Z" style="fill:#fff;opacity:0.2;isolation:isolate"></path><polygon points="134.72 271.51 136.52 287.21 133.86 287.15 122.55 286.9 120.74 277.63 119.85 273.08 134.72 271.51" style="fill:#41783B"></polygon><path d="M133.86,287.15l-11.31-.25-1.81-9.27,0-.21A15,15,0,0,1,133.86,287.15Z" style="opacity:0.2;isolation:isolate"></path><path d="M148.09,337.41s13.76,23.38,13.68,35.79-5.58,38.05-5.58,38.05l-6.82.11s1.69-31.17,1.28-36.65-14.81-26.88-14.81-26.88Z" style="fill:#e4897b"></path><path d="M120.2,337.41s2.49,25.45,0,37.6-12.88,36.24-12.88,36.24L100.61,410s7.73-30.25,8.39-35.7-4.7-34.78-4.7-34.78Z" style="fill:#e4897b"></path><path d="M137.92,356.43a62,62,0,0,0-13.62-13.74,126.62,126.62,0,0,1-.85,16.88l-21.32,1.8a255.78,255.78,0,0,0-6.8-39.13l39.36-12.66,3,6.69s9.78,10.65,21.78,32.69Z" style="fill:#263238"></path><path d="M119.23,412.74a19.67,19.67,0,0,1-8.57-3.91c1-5,.43-5.19-.81-5-1.48.28-3.43,3.29-3.43,3.29-5.11-2.44-7.14.86-7.14.86-2.36,7.67-1.89,7,1.37,7.58,2.82.13,4.18,0,7.74.24a67.2,67.2,0,0,0,9.5.31C120.91,415.85,120.54,412.88,119.23,412.74Z" style="fill:#41783B"></path><path d="M167.32,412.74a19.67,19.67,0,0,1-8.57-3.91c1-5,.42-5.19-.81-5-1.48.28-3.43,3.29-3.43,3.29-5.11-2.44-7.15.86-7.15.86-2.35,7.67-1.88,7,1.37,7.58,2.83.13,4.18,0,7.75.24a67.14,67.14,0,0,0,9.5.31C169,415.85,168.62,412.88,167.32,412.74Z" style="fill:#41783B"></path><path d="M135.84,312.21l-40.51,10S93,312.89,90.76,299c-.71-4.54-1.42-9.57-2-14.93-.2-1.77-.39-3.59-.56-5.43,0,0,12.46-7.87,33.31-5.26C121.51,273.33,128.37,295.33,135.84,312.21Z" style="fill:#41783B"></path><path d="M108,288.43l-3.56-4.55s8.53,3.18,8.34,2.81,1.53-5.85,1.53-5.85l4.88,5.58,4.32-5-.42,4.28,2.59.14.93,3.42-1,1.89,1.85,3.21-1.61.5-1,5.21-5.61-3L116.46,303l-3.07-5.18L105,299l2.47-5.49-4.76-3.87Z" style="fill:#fff;opacity:0.5;isolation:isolate"></path><path d="M117.14,296.09a16,16,0,0,1-10.5-5.77c.44,0,.89,0,1.34,0a58.28,58.28,0,0,0,15.09-2.48c.71-.2,1.1-.33,1.1-.33C125,291.14,123.72,296.66,117.14,296.09Z" style="fill:#263238"></path><path d="M111.84,294.53a11.07,11.07,0,0,1,5,4.37c2.56,4.67,6.43,5,8.64,2.79,2-2.06,1.1-7.22-1.83-9.85-1.89-1.7-5.62.25-5.62.25S114.87,290.78,111.84,294.53Z" style="fill:#41783B"></path><path d="M111.84,294.53a11.07,11.07,0,0,1,5,4.37c2.56,4.67,6.43,5,8.64,2.79,2-2.06,1.1-7.22-1.83-9.85-1.89-1.7-5.62.25-5.62.25S114.87,290.78,111.84,294.53Z" style="fill:#fff;opacity:0.30000000000000004;isolation:isolate"></path><path d="M118.05,292.09a7.71,7.71,0,0,1,3.7,4.53s1-.46.37-2.52S118.05,292.09,118.05,292.09Z" style="opacity:0.2;isolation:isolate"></path><path d="M123.07,287.87v1.52c-4.11,2.15-13.85,2.45-13.85,2.45L108,290.35A58.28,58.28,0,0,0,123.07,287.87Z" style="fill:#fff"></path><path d="M122.65,279.52c-3.7,6-10.67,8.91-10.67,8.91l-2.32,7.13-20-3.91c-.33-2.45-.64-5-.93-7.63a11,11,0,0,1,6.57-4A30,30,0,0,1,112,282l3.17-2.43Z" style="opacity:0.2;isolation:isolate"></path><path d="M111.84,268.25a5.87,5.87,0,0,0,1,4.43,6.29,6.29,0,0,0,.53.65,9.21,9.21,0,0,0,1,.88s.29,4-3,4.39a15.28,15.28,0,0,1-11.24-3.31,11,11,0,0,0,.93-8.92,14.71,14.71,0,0,0-2.11-4.22l10,1.55,4.52.71A9.73,9.73,0,0,0,111.84,268.25Z" style="fill:#e4897b"></path><path d="M111.84,268.25a5.87,5.87,0,0,0,1,4.43,6.29,6.29,0,0,0,.53.65c-5.41.14-9.95-4.15-12.35-7a14.71,14.71,0,0,0-2.11-4.22l10,1.55,4.52.71A9.73,9.73,0,0,0,111.84,268.25Z" style="opacity:0.2;isolation:isolate"></path><path d="M113.45,236.25s11.37,6.87,1.41,17.56C103.6,265.88,113.45,236.25,113.45,236.25Z" style="fill:#263238"></path><path d="M90.87,253.66c1.7,7.75,7.38,15.78,14,16,12.23.41,16.56-2.55,16.58-11.59.06-8.14-4.59-20.31-14.79-21.2S88.5,242.91,90.87,253.66Z" style="fill:#e4897b"></path><path d="M115.4,241.29s-5.14-4.48-11.53,1.47a6.12,6.12,0,0,0-2.75,7.6c1.82,5.22-4,9.05-3.2,16.19,0,0-7.54.19-11-15.22-2.49-11.22,6.72-17.05,16.86-18.33C112.31,231.93,119.18,237.16,115.4,241.29Z" style="fill:#263238"></path><path d="M109.09,253.31c.18,1,.86,1.7,1.51,1.57s1-1,.83-2-.86-1.69-1.51-1.58S108.9,252.32,109.09,253.31Z" style="fill:#263238"></path><path d="M116.93,251.44c.17.95.82,1.63,1.44,1.51s1-1,.8-1.93-.82-1.62-1.44-1.5S116.75,250.5,116.93,251.44Z" style="fill:#263238"></path><path d="M111,247.81a.54.54,0,0,0,.11-.26.47.47,0,0,0-.46-.46,4.49,4.49,0,0,0-3.72,1.81.45.45,0,0,0,.13.63h0a.47.47,0,0,0,.63-.13h0a3.55,3.55,0,0,1,3-1.38A.51.51,0,0,0,111,247.81Z" style="fill:#263238"></path><path d="M118.76,246.78a.66.66,0,0,0,.23-.17.47.47,0,0,0-.19-.62,4.44,4.44,0,0,0-4.13-.19.44.44,0,0,0-.19.61h0a.46.46,0,0,0,.61.19h0a3.57,3.57,0,0,1,3.3.22A.53.53,0,0,0,118.76,246.78Z" style="fill:#263238"></path><path d="M115.59,252.88l-.25,4.39a5.44,5.44,0,0,0,3.12-.75A12.86,12.86,0,0,1,115.59,252.88Z" style="fill:#de5753"></path><path d="M100.39,257.13s-2.86-4.47-5.09-2.55-.42,9.85,3.26,9.25S102.48,259.43,100.39,257.13Z" style="fill:#e4897b"></path><path d="M116.13,260.16a25.29,25.29,0,0,0-1.2,3.45l-.64-.06c-2.9-.33-4.14-1.43-4.63-2.56a3.73,3.73,0,0,1-.27-1.77,3.84,3.84,0,0,1,.2-1c1.43,1.09,4.11,1.6,5.56,1.81C115.75,260.13,116.13,260.16,116.13,260.16Z" style="fill:#263238"></path><path d="M115.15,260l-.38,1c-2.74-.31-4.62-.89-5.38-1.82a3.84,3.84,0,0,1,.2-1C111,259.31,113.7,259.82,115.15,260Z" style="fill:#fff"></path><path d="M114.29,263.55c-2.9-.33-4.14-1.43-4.63-2.56a9.27,9.27,0,0,1,3.15,1A3.49,3.49,0,0,1,114.29,263.55Z" style="fill:#de5753"></path><path d="M102.41,244.55v3c1.59-.51,3.13-.95,4.6-1.33l.76-4.78,1,4.34c1.65-.38,3.2-.68,4.6-.91v-4.16a10.74,10.74,0,0,1,1.8,3.88,56.47,56.47,0,0,1,6.31-.59s.85-8-8.11-11.12-18.06,2.5-18.06,2.5c-15.42,5.15-8.78,19.72-8.78,19.72a64.76,64.76,0,0,1,14.82-7.2Z" style="fill:#263238"></path><path d="M100,275.49s18.92.75,21.64-.71,12.5-14,12.5-14l4.13,2.37s-7.69,13.57-12.74,17.2-20.38,3.83-20.38,3.83Z" style="fill:#e4897b"></path><path d="M88.34,277.15c-5,7.63,8.51,15.08,21.26,15.94l1.8-17.54S91.25,272.71,88.34,277.15Z" style="fill:#41783B"></path><path d="M133.92,265.56c-1.3-.34-3-8.51-2.45-10,.86-2.26,2.23-4,2.95-4s9.17,4.56,9.45,5.49S138.27,266.7,133.92,265.56Z" style="fill:#e4897b"></path></g></g></svg>