<svg xmlns="http://www.w3.org/2000/svg" viewBox="0 0 500 500"><g id="freepik--Plants--inject-14"><path d="M80.09,360.24c-4.57,2.05-9.64,4.42-14.7,3-4.68-1.34-9.52-4.19-11-9.14-.42-1.41-.45-2.37,1.24-2.38,2.57,0,5.27,1.73,7.5,2.82A50.07,50.07,0,0,0,72.06,358c2.16.6,4.39,1,6.57,1.51.27.06.55.13.82.21.1,0,.21,0,.31.09l.14-.05a.23.23,0,0,1,.23,0l.07.06A.27.27,0,0,1,80.09,360.24Z" style="fill:#41783B"></path><path d="M80.2,359.84c-4.11,1.59-8.44,3.56-12.82,2.12a20.45,20.45,0,0,1-5.66-3.07c-.78-.57-3.12-2.28-2.91-3.43.39-2.08,8,2.66,8.91,3a21.46,21.46,0,0,0,10.91,1c.27.06.55.13.82.21a23.87,23.87,0,0,1-7.82.15c-3.59-.55-6.24-2.45-9.47-3.91-.7-.32-2.88-1.45-3-.15-.08.86,2.2,2.55,2.69,2.91a20.32,20.32,0,0,0,5.35,2.92c4.41,1.52,8.75-.36,12.93-1.86Z" style="fill:#fff"></path><path d="M83.8,362c0,.2.07.39.11.59h0a.12.12,0,0,1,0,.13.2.2,0,0,1-.28,0,.13.13,0,0,1,0-.11.22.22,0,0,0,0-.08,1.09,1.09,0,0,0,0-.18h0l0-.05c-2.07-2.73-3.68-5.8-5.8-8.52s-4.21-5.05-6-7.8c-1.14-1.73-6.3-10.67-1.65-11.18,2.06-.23,4.42,1.93,5.77,3.25a20.93,20.93,0,0,1,4.3,6.18C82.7,349.91,82.72,356,83.8,362Z" style="fill:#41783B"></path><path d="M80.35,349.7a24.92,24.92,0,0,0-3.28-6.15c-.48-.65-2.8-3.76-3.94-3.19-.75.36-.27,1.91-.13,2.43.59,2.22,2.15,4.09,3.39,6a92.05,92.05,0,0,1,6.66,12c.08.28.14.57.22.84s.13.47.19.71l.06.24.06.19a.21.21,0,0,0,.28,0c0-.18-.09-.36-.14-.54.07.14.12.27.19.41s0,0,0,0l-.09-.48a.43.43,0,0,1,0-.11l-.3-.69A103,103,0,0,0,80.35,349.7Zm2.47,10.13c-1.12-2.43-2.37-4.8-3.72-7.12-1.09-1.87-2.26-3.68-3.47-5.47a22.7,22.7,0,0,1-1.9-3.13c-.38-.85-1.56-4.1.89-2.79,1.77,1,3.3,3.9,4.16,5.6a34.76,34.76,0,0,1,2.27,5.92C81.73,355.15,82.26,357.5,82.82,359.83Z" style="fill:#fff"></path><path d="M91.47,373.75h0a.72.72,0,0,1-.16.09c-4.33,1.51-9.82,4.2-14.49,2.83-3.44-1-7.67-4.07-8.25-7.88-.66-4.3,6.54-1.75,8.4-1.18a137.94,137.94,0,0,1,14.5,5.89l.09.05h0C91.63,373.61,91.55,373.69,91.47,373.75Z" style="fill:#41783B"></path><path d="M91.56,373.57l-.92-.17c-3.5-.62-7-1.39-10.41-2.34-.86-.23-7.36-2.54-7.47-.73-.05,1.09,2.28,2.32,3,2.75a14.07,14.07,0,0,0,4.39,1.57c3.54.61,7.13-.4,10.67-.85l.5-.07.1,0h0C91.55,373.69,91.62,373.62,91.56,373.57Zm-9.37,1a14.19,14.19,0,0,1-4.67-1c-1-.39-4.52-1.91-4.28-3.22.13-.7.54-.52,1.35-.47a9.88,9.88,0,0,1,1.11.16c.91.18,1.78.46,2.66.71,1.54.46,3.09.88,4.65,1.27,2.55.64,5.13,1.17,7.73,1.61C87.87,373.88,85.06,374.67,82.19,374.56Z" style="fill:#fff"></path><path d="M95.67,361.86a27.07,27.07,0,0,1-2.12,15.65.17.17,0,0,1-.06.08.21.21,0,0,1-.33-.24c0-.1.09-.21.13-.31-1.64-6.05-3.19-12.1-5-18.12-.41-1.42-2.87-10.53.37-10.2,2,.21,3.55,3.72,4.34,5.26A27.48,27.48,0,0,1,95.67,361.86Z" style="fill:#41783B"></path><path d="M91,354.76c-.34-.43-.8-.82-1.2-.26-.77,1.07.48,5.31.76,6.51,1.18,4.94,1.89,9.86,2.62,14.87.06.42.13.84.19,1.27l-.12.45a.21.21,0,0,0,.25,0s0-.09,0-.13c0-.2.11-.4.15-.61h0a32.11,32.11,0,0,0,.88-9.89,30.36,30.36,0,0,0-1.08-6.21C92.91,358.89,92.24,356.29,91,354.76Zm2.5,21.78-.06.3c0-.18,0-.35-.05-.53a89.7,89.7,0,0,0-1.7-11.64c-.43-1.94-1-3.86-1.34-5.81-.15-.83-.66-3.16-.17-3.77s.82.25,1.08.71.45,1,.59,1.3A31.53,31.53,0,0,1,93.49,376.54Z" style="fill:#fff"></path><path d="M99.31,389.66l-.85.35-1-2.22c-1.33-3-2.67-5.93-4.07-8.87-.8-1.68-1.62-3.34-2.48-4.95a1.4,1.4,0,0,1-.09-.17c-.08-.13-.15-.26-.22-.4s-.15-.28-.24-.42A39.22,39.22,0,0,0,83,363.09c-1-.95-2.07-1.86-3.15-2.74l-.31-.25a.27.27,0,0,0-.08-.07l-.33-.26-.24-.19c-3.37-2.66-6.95-5.05-10.43-7.51-1-.7-2-1.41-3-2.12a.83.83,0,0,1-.18-.13,1.7,1.7,0,0,1-.22-.15c-4.39-3.14-8.75-6.33-13.21-9.34-.17-.11,0-.35.19-.24,3,2,6,3.9,9.06,5.84.41.25.81.52,1.21.77.81.52,1.6,1,2.39,1.54,1.6,1,3.17,2.06,4.74,3.13a132.65,132.65,0,0,1,12.94,9.46c.3.26.59.53.88.8l.55.51c.21.19.41.39.62.6a41.94,41.94,0,0,1,8.28,12.2c.15.31.31.62.45.94l.21.43a1.63,1.63,0,0,0,.11.23c0,.1.09.2.14.31h0a2.4,2.4,0,0,0,.11.23c.12.27.24.54.37.81q2,4.46,3.93,8.93C98.45,387.77,98.88,388.71,99.31,389.66Z" style="fill:#41783B"></path><path d="M51.82,345.36c-3.59-2.18-9.18-7.41-7.12-12.15a3.93,3.93,0,0,1,4.7-2.33c2.34.57,4.16,2.71,5.58,4.52,3.78,4.83,7.08,10,11.22,14.53,0,0,.35.39.44.49s-.07.22-.16.12l-.4-.44C61.29,348.92,56.08,348,51.82,345.36Z" style="fill:#41783B"></path><path d="M66.23,349.93l-.09-.07a41.32,41.32,0,0,1-3.82-3.16,85.18,85.18,0,0,1-7-7.59c-.85-1-4.84-6.08-6-3-.48,1.31.34,3,1,4.09a15.59,15.59,0,0,0,4,4.66c3.19,2.57,7.07,3.91,11,4.92l.54.14.14.11.1.07a.09.09,0,0,0,.06,0,.14.14,0,0,0,.15-.16A.08.08,0,0,0,66.23,349.93Zm-1.16-.26a33.26,33.26,0,0,1-9.2-3.91A17.38,17.38,0,0,1,52,342.29a13.43,13.43,0,0,1-1.32-1.93,10.78,10.78,0,0,1-.75-1.57c-.44-1.19-.47-2.68.18-3.08s1.29-.13,2.26.64a10.29,10.29,0,0,1,.93.82,30.48,30.48,0,0,1,2.07,2.33c1.09,1.32,2.2,2.63,3.35,3.91.78.86,1.58,1.71,2.41,2.52a43.54,43.54,0,0,0,4.56,3.91Z" style="fill:#fff"></path><path d="M425.93,345.17c-1.62,2.95-3.44,5.79-5.29,8.6-1,1.59-2.11,3.17-3.15,4.78s-2.5,3.48-2.75,5.62h0a1.84,1.84,0,0,1-.09.28l0,0a.25.25,0,0,1-.37-.23c0-.05,0-.1,0-.14a.14.14,0,0,0,0-.06,7.86,7.86,0,0,1,0-1.87,43.43,43.43,0,0,1,.24-5.1,41.87,41.87,0,0,1,2.31-10.18,35.22,35.22,0,0,1,4.34-8.26c1.45-2,3.58-5.08,5.95-6.14,2.14-.95,2.41,2.06,2.35,3.5C429.26,339.26,427.47,342.38,425.93,345.17Z" style="fill:#41783B"></path><path d="M425.78,337.48c-1.13-.46-3.41,2.87-4.44,4.29a33.83,33.83,0,0,0-4,7.23,44.23,44.23,0,0,0-3.05,14.46c0,.19,0,.4,0,.6a.43.43,0,0,1,0,.05.78.78,0,0,1,0,.14.25.25,0,0,0,.38.23c.08-.41.17-.81.28-1.21s.19-.71.31-1.06a58.23,58.23,0,0,1,5.15-10.92C422.65,347.18,427.28,338.08,425.78,337.48Zm-11.06,25.37c-.15.53-.26,1.06-.37,1.59,0-.41.06-.82.1-1.22a48.11,48.11,0,0,1,2.62-12.78,34.62,34.62,0,0,1,3.22-6.62,29.38,29.38,0,0,1,2.3-3.22c.35-.43,2.39-3.16,3-2.73.45.31-.53,3.11-.55,3.17-.19.56-.41,1.11-.64,1.66-.47,1.14-1,2.24-1.55,3.34-1.19,2.37-2.52,4.68-3.8,7A46.44,46.44,0,0,0,414.72,362.85Z" style="fill:#fff"></path><path d="M440.34,360.85c-3.7,3.22-8.43,4.93-13.11,6.15-2.5.65-5,1.18-7.56,1.78a34.08,34.08,0,0,0-6.66,1.89l-.28.13a8.94,8.94,0,0,0-1.64,1,.11.11,0,0,1-.12,0,1,1,0,0,1-.14.15s-.1,0-.08,0,.08-.13.11-.2h0a.15.15,0,0,1,.06-.16.1.1,0,0,1,.06-.05l.1-.19c2.48-4.5,7.71-8,12-10.5s9-4.38,14-4.32c1.26,0,4.19-.15,4.94,1.18S441.12,360.16,440.34,360.85Z" style="fill:#41783B"></path><path d="M437.12,359.59c-.6-1.39-4.47-.11-5.43.17a52.31,52.31,0,0,0-8.34,3.45,46.66,46.66,0,0,0-12.11,8.05h0l-.15.09a.72.72,0,0,0-.11.19.18.18,0,0,0-.07.05.14.14,0,0,0,0,.16,1.39,1.39,0,0,1,.21-.11c.53-.3,1.09-.58,1.65-.85l.28-.13a101.4,101.4,0,0,1,12.15-4.36,46.65,46.65,0,0,0,8.3-3.43C434.14,362.52,437.62,360.74,437.12,359.59Zm-1.77,1.8c-4.08,3.09-9.51,4.37-14.29,5.9a53.23,53.23,0,0,0-9.44,3.76,49.82,49.82,0,0,1,11.09-7.16,70.45,70.45,0,0,1,6.88-3.08,28,28,0,0,1,3.91-1.19,10.44,10.44,0,0,1,2.44-.28C437.48,359.49,436,360.86,435.35,361.39Z" style="fill:#fff"></path><path d="M406.58,381.23a.29.29,0,0,1-.26,0l0,.1a.07.07,0,0,1-.06.09.07.07,0,0,1-.1,0c-2.28-5.44-4.09-11.66-3.94-17.6a23,23,0,0,1,1.35-7.36c.59-1.61,1.79-4.86,3.61-5.48,3.68-1.24,2.23,9.67,2,11.31-.41,3-1.06,6-1.53,8.93-.5,3.27-.77,6.57-1,9.86A.22.22,0,0,1,406.58,381.23Z" style="fill:#41783B"></path><path d="M406.58,381.23c-.05-.32-.09-.63-.13-.94a50,50,0,0,1,.36-15.28,44.92,44.92,0,0,0,.94-7.66c0-.63.16-3-1.18-2.32-.69.37-1.89,4.53-2.12,5.64a31,31,0,0,0-.48,7.69,52.12,52.12,0,0,0,2.21,12.73c0,.12.07.25.11.36a.08.08,0,0,0,.06-.09l0-.1A.29.29,0,0,0,406.58,381.23Zm-2.18-10.74a36.32,36.32,0,0,1,0-7.66,25.82,25.82,0,0,1,.53-3,15.94,15.94,0,0,1,.69-2.29c.74-1.8,1.07-2.22,1.4-2.16s.38.34.48,1.63a12.41,12.41,0,0,1-.1,2.51c-.14,1.18-.33,2.35-.53,3.52-.39,2.34-.81,4.69-1,7a38.58,38.58,0,0,0,.36,10.18A59.54,59.54,0,0,1,404.4,370.49Z" style="fill:#fff"></path><path d="M422.69,376.64a14.69,14.69,0,0,1-4.61,4.23c-3.53,2.24-7.49,3.7-11.17,5.68-.55.3-1.09.6-1.63.93-.06,0-.6.58-.58.53l.4-.64h0c1.24-1.93,5.06-7.7,8-10.27a30.09,30.09,0,0,1,5.91-4.24c1-.52,3.37-1.58,4.47-.71S423.28,375.72,422.69,376.64Z" style="fill:#41783B"></path><path d="M421.16,374.56c-1-1.36-6.89,3.41-7.66,4a41.6,41.6,0,0,0-7.66,7.8c-.25.32-.5.65-.74,1l-.4.63s.53-.48.58-.52l.28-.17c.45-.26.9-.52,1.35-.76,2.38-1.64,4.8-3.24,7.15-4.93a38.37,38.37,0,0,0,4.81-4C419.21,377.29,421.61,375.15,421.16,374.56Zm-1.07,1.57c-4,4.59-9.57,7.26-14.42,10.82l-.24.18.29-.37a47.24,47.24,0,0,1,6.25-6.55,46.23,46.23,0,0,1,4.39-3.35,23.57,23.57,0,0,1,2.56-1.63c.39-.19,1.5-.68,1.71-.44S420.36,375.83,420.09,376.13Z" style="fill:#fff"></path><path d="M453.66,337.88c-7.59,7.53-19.69,7.62-27.69,14.6l0,0q-.37.32-.72.66a.2.2,0,0,1-.32-.07.15.15,0,0,1,0-.16l.17-.16A51,51,0,0,1,437,339.07c4-3.29,8.64-6,13.84-6.46,1.28-.13,3.82-.45,4.65.93S454.59,337,453.66,337.88Z" style="fill:#41783B"></path><path d="M449.93,336.85c-.35-.57-1.3-.42-1.82-.37a16,16,0,0,0-3.82.85,27,27,0,0,0-7.07,3.8,55.35,55.35,0,0,0-10.22,9.2q-1,1.19-1.89,2.46c-.08.1-.15.21-.22.31a.2.2,0,0,0,.32.08c.22-.23.45-.43.69-.64l.06-.06a32.42,32.42,0,0,1,4.9-4.06,76.31,76.31,0,0,1,8.74-4.67C440.76,343.17,451.17,338.83,449.93,336.85Zm-1.47,1.86c-2.06,1.66-4.62,2.66-7,3.82s-4.77,2.34-7.13,3.56a37.14,37.14,0,0,0-5.35,3.35,28.48,28.48,0,0,0-3.92,3.52,39.57,39.57,0,0,1,3.37-3.94l0,0a73.81,73.81,0,0,1,6.9-6.12l.09-.08a33.67,33.67,0,0,1,6.82-4.37,19.42,19.42,0,0,1,4.18-1.41c1.64-.32,3-.42,3.16.13C449.75,337.51,449.07,338.22,448.46,338.71Z" style="fill:#fff"></path><path d="M435.56,343c-2.21,2.09-4.39,4.24-6.55,6.4-1,1-2,2-3.05,3l-.06.06-1.1,1.1c-3.31,3.31-6.83,6.64-9.56,10.46a40.13,40.13,0,0,0-3.68,6.46c-.1.24-.21.47-.32.7h0c-.05.13-.11.25-.16.38a1.47,1.47,0,0,0-.1.22c-.87,2-1.64,4-2.38,5.94-1,2.74-1.87,5.53-2.69,8.32a1.82,1.82,0,0,0-.07.25l-.12.38c0,.06,0,.13-.05.19s-.07.24-.11.36c-.26.9-.52,1.8-.8,2.7l-.83-.33a56.7,56.7,0,0,1,2.2-8.42,1.09,1.09,0,0,1,.05-.17l.27-.8c.11-.33.22-.66.35-1,.28-.79.56-1.57.85-2.34A61.4,61.4,0,0,1,414,363.92l.23-.33.09-.13.17-.24.27-.37c.16-.22.33-.43.5-.64l.15-.19a93.22,93.22,0,0,1,9-9.23l1.7-1.59.95-.87,1.46-1.31,0,0c2.29-2.05,4.62-4.06,6.9-6.12C435.5,342.76,435.67,342.94,435.56,343Z" style="fill:#41783B"></path></g><g id="freepik--Floor--inject-14"><polygon points="45.75 389.81 96.82 389.57 147.88 389.48 250 389.31 352.12 389.48 403.19 389.57 454.25 389.81 403.19 390.06 352.12 390.14 250 390.31 147.88 390.14 96.82 390.05 45.75 389.81" style="fill:#263238"></polygon></g><g id="freepik--Watermelon--inject-14"><path d="M60.93,296.84S77.5,450.75,247.58,450.48,439.07,296.21,439.07,296.21l-19.69,0-10.11,0-319,.52h-9.6Z" style="fill:#455a64"></path><path d="M80.62,296.79S95.47,434.7,247.86,434.44c151.07-.22,171.19-135.9,171.52-138.19v0L111,296.74l-20.75,0Z" style="fill:#fff"></path><path d="M90.22,296.78v0c2.63,16.92,24.67,128,157.52,127.77s158.44-111.4,161.53-128.29l-298.3.46Z" style="fill:#41783B"></path><path d="M360.38,321.14c2.44-.63,12.07,14.05,4.14,16.09S357.94,321.76,360.38,321.14Z" style="fill:#263238"></path><path d="M297.71,338.54c2.43-.63,12.06,14,4.14,16.09S295.27,339.17,297.71,338.54Z" style="fill:#263238"></path><path d="M335.9,366.94c2.3-1,14.26,11.82,6.79,15.17S333.6,368,335.9,366.94Z" style="fill:#263238"></path><path d="M168.94,361.05c2.32,1,1,18.49-6.51,15.28S166.62,360.06,168.94,361.05Z" style="fill:#263238"></path><path d="M254.55,315.26c2.51-.17,9.29,16,1.12,16.58S252,315.43,254.55,315.26Z" style="fill:#263238"></path><path d="M250.87,388.46c2.51-.17,9.29,16,1.13,16.58S248.36,388.63,250.87,388.46Z" style="fill:#263238"></path><path d="M144.42,319.35c2.31,1,.77,18.5-6.71,15.2S142.12,318.33,144.42,319.35Z" style="fill:#263238"></path><path d="M209.71,339.38c2.44.62,3.88,18.11-4.05,16.12S207.27,338.77,209.71,339.38Z" style="fill:#263238"></path><path d="M318.45,439.75c-20.15,6.69-43.6,10.69-70.87,10.73C77.5,450.75,60.93,296.84,60.93,296.84l19.69,0h9.6l44.65-.07C136.53,341.19,157.19,448.26,318.45,439.75Z" style="opacity:0.1"></path><path d="M395.75,308.77a65.56,65.56,0,0,1-1.74,8.89c-.76,2.92-1.66,5.81-2.68,8.66a120.3,120.3,0,0,1-7.41,16.62A124.94,124.94,0,0,1,362,372.21c-1.1,1.08-2.25,2.1-3.37,3.15s-2.29,2.06-3.47,3c-2.34,2-4.82,3.83-7.29,5.65L344,386.61c-.64.42-1.26.87-1.93,1.26l-2,1.15c-1.34.76-2.64,1.58-4,2.27l-4.11,2a98.79,98.79,0,0,1-17.17,6.3,88,88,0,0,1-17.88,2.9c11.06-4.79,21.55-9.84,31.25-16.08,4.86-3.09,9.49-6.47,14-10,2.18-1.84,4.44-3.59,6.53-5.54s4.21-3.86,6.28-5.83a201.76,201.76,0,0,0,22.28-26.29c3.38-4.71,6.58-9.58,9.66-14.58S392.94,314.1,395.75,308.77Z" style="fill:#fff;opacity:0.2"></path><path d="M153.59,393.73a37.59,37.59,0,0,0-8.81-15.09,40.23,40.23,0,0,0-5.51-4.82c-11.07-8-26.46-10.87-41.56-6.3a49.63,49.63,0,0,0-15.24,7.61,46.26,46.26,0,0,0-11.62,12.3,41.39,41.39,0,0,0-6,14.55c-.21,1.11-.38,2.22-.5,3.35a37.4,37.4,0,0,0,.31,10.5,36.06,36.06,0,0,0,1.06,4.49,10.65,10.65,0,0,0,.38,1.08v0a34.66,34.66,0,0,0,3.29,7.21,38.91,38.91,0,0,0,10.45,11.46c11.09,8.15,26.58,11,41.76,6.45a50.16,50.16,0,0,0,15.7-7.94h0a47,47,0,0,0,5.31-4.71,44.51,44.51,0,0,0,8.72-12.51,34.43,34.43,0,0,0,1.58-3.89,38.86,38.86,0,0,0,2.08-9.71,37.29,37.29,0,0,0-1.48-14Z" style="fill:#37474f"></path><path d="M142.69,433.88a45.32,45.32,0,0,1-5.32,4.71h0c-3.39.62-6.73,1.47-10.19,1.91-1.93.27-4-.05-6,.66-.79.29-1.35,1.67-2.42,1.81-1.81.25-3.25.36-5-1-.89-.72-1.08-2.36-1.9-3q-.19-5.48-6.77-.77a5.65,5.65,0,0,1-.9,1.74c-1.89,1.3-2.46,3.5-5.36,3.61a7.27,7.27,0,0,1-3.1-.84c-3.89-1.74-1.88-2.52-6.57-2.39-4,.1-5.25,1.36-9.26-.31a38.78,38.78,0,0,1-10.45-11.46,1,1,0,0,1,1.45-.05c2.65,2.84,7.34,7.43,11.62,7.67,3,.16,4.54-2.41,7.05-2.46,2.86,0,3.75,1.85,6.07,2.26,3,.58,1.37,2.27,5.67-2,.82-.82.82-2.36,1.85-3,2.73-1.72,4.49-2.83,7.85-1.7,2.35.81,3.08,2.09,4.64,4,3.47,4.19,1.94,2.15,6.52.32,1.24-.5,11.56.34,11.45.35A36.39,36.39,0,0,1,142.69,433.88Z" style="fill:#455a64"></path><path d="M153,417.48c-2-.05-4.07.06-6.43.18-6.42.29-7.31-5.65-13.13-5.73-2.94,0-3.32,1.67-5.71,2.56a4.26,4.26,0,0,1-3.73,1.08c-2,1.31-3.72,1-4.94-.82-5-1.35-6.6-2.63-12-1.14-4.36,1.18-1.88,4.6-8.64,2.5-1.54-.47-3.31-3.06-5.06-3.69-4.65-1.76-7.81-.16-11.86,2-6,3.16-6.1,4.55-13.38,2.52a32,32,0,0,0-3.45-1.09,36.06,36.06,0,0,0,1.06,4.49,10.65,10.65,0,0,0,.38,1.08v0c3.33,1,8,3,9.08,3.05,4.31.14,4.77-2.82,8-4l11.41-.24a9,9,0,0,0,2.22,2.05c1,.31,1.66,1.24,2.78,1.45,3.49.64,3.41-.78,6.48-2.07,14.78-6.29,8.15,1,16.61,1.34,3.92.17,6.1-3,10.18-3.15,4.93-.21,5.7,2.7,10.21,3.07,1.83.14,2.31-.76,4.65-1.13a32.87,32.87,0,0,1,3.62-.38A34.43,34.43,0,0,0,153,417.48Z" style="fill:#455a64"></path><path d="M154.93,400.06c-2.2-2.95-4.79-5.31-9.81-5.69-3.8-.29-7.08-.15-10.58-1.42-1.06-.39-1.86-1.44-3-1.8-4.06-1.25-5.21,1.42-8.59,2.49-4.51,1.4-8.07.44-12-.93-1.19-.45-2.26-1.5-3.55-1.75-4.51-.88-6.76,2.19-10.47,3.88-8.43,3.79-13.86-2.86-21.24-.28-4.35,1.52-5.55,6.92-10.81,7.42-.21,1.11-.38,2.22-.5,3.35a8.79,8.79,0,0,0,7.41-.52c1.6-.83,2.82-3.4,4.22-4.05,3.22-1.5,7.57.62,10.71,1.16,3.62.6,7,.81,10.48-.65,5.33-2.26,4.58-5.24,11.87-2.75,2.3.8,2.46,2.22,4.93,3a11.49,11.49,0,0,0,7.67-.26c1.49-.59,3.4-3,4.79-3.38,6.81-1.83,5.14,1.84,9.4,2.64,4.64.88,8-.5,12.42,1.74,2.81,1.42,4.78,3.52,6.79,5.55A38.29,38.29,0,0,0,154.93,400.06Z" style="fill:#455a64"></path><path d="M144.78,378.64a40.23,40.23,0,0,0-5.51-4.82c-3.25-.66-6.91-3.06-9.8-2.76-1.11.11-2.14.65-3.18.85-2.57,2.49-5.74,2.93-9.49,1.27l-2.94-1.24c-4.29-1.07-6.7-1.16-10.87.14-.92.28-1.34,1.19-2.2,1.59-5.19,2.53-6.35,2.95-11.29,1.92a22.17,22.17,0,0,0-7-.46,46.26,46.26,0,0,0-11.62,12.3,1.43,1.43,0,0,0,1-.45c6.4-7,12.2-4.5,20.13-4.36,2.75.07,3.74.86,6.49-.13,2.52-.92,3.11-3.12,5.21-4.28,8.74-4.82,8.18-.78,15.16-.14a20.54,20.54,0,0,0,4.44-.24,10.09,10.09,0,0,1,9.09-1.52,24.49,24.49,0,0,0,2.29,1.44A56.41,56.41,0,0,1,144.78,378.64Z" style="fill:#455a64"></path><path d="M137.1,438.76a49.55,49.55,0,0,1-15.47,7.77c-15.17,4.6-30.67,1.71-41.76-6.44a38.78,38.78,0,0,1-10.45-11.46,34.16,34.16,0,0,1-3.29-7.21v0c-.15-.35-.27-.73-.38-1.08a35.64,35.64,0,0,1-1.06-4.49,37.4,37.4,0,0,1-.31-10.5c.12-1.13.28-2.23.5-3.35a41.15,41.15,0,0,1,6-14.55,46.37,46.37,0,0,1,11.61-12.3,49.57,49.57,0,0,1,15.25-7.61,5.12,5.12,0,0,1,.56-.15c-10.54,10-26.92,30.62-14.41,57.1C94.46,446.87,118.08,445.79,137.1,438.76Z" style="opacity:0.1"></path><path d="M119.57,372a32.68,32.68,0,0,1,24.17,14,29.21,29.21,0,0,1,3.25,6.67,28.44,28.44,0,0,1,1.37,7.21,29.81,29.81,0,0,1-2.66,13.91,67.21,67.21,0,0,0-1.24-13.39,36.16,36.16,0,0,0-1.92-6.08,33.94,33.94,0,0,0-3-5.55,42.11,42.11,0,0,0-8.73-9.34A76.47,76.47,0,0,0,119.57,372Z" style="fill:#fff;opacity:0.5"></path><path d="M123.87,412.21a35.65,35.65,0,0,1,8.36-14.33,37.4,37.4,0,0,1,5.23-4.57c10.51-7.63,25.12-10.32,39.45-6a46.89,46.89,0,0,1,14.47,7.23,44,44,0,0,1,11,11.66A39.22,39.22,0,0,1,208.07,420c.2,1.07.37,2.12.47,3.19a35.07,35.07,0,0,1-.29,10,34.32,34.32,0,0,1-1,4.27,10.25,10.25,0,0,1-.35,1v0a32.87,32.87,0,0,1-3.11,6.84,37,37,0,0,1-9.93,10.88c-10.52,7.73-25.23,10.48-39.64,6.12a47.53,47.53,0,0,1-14.9-7.53l0,0a44,44,0,0,1-5-4.46,42.47,42.47,0,0,1-8.28-11.88,32.71,32.71,0,0,1-1.49-3.69,36.38,36.38,0,0,1-2-9.22,35.79,35.79,0,0,1,.12-7.31A36.39,36.39,0,0,1,123.87,412.21Z" style="fill:#37474f"></path><path d="M134.21,450.32a45,45,0,0,0,5,4.47h0c3.22.58,6.39,1.39,9.67,1.81,1.84.26,3.8,0,5.73.63.75.27,1.28,1.58,2.29,1.71,1.73.24,3.09.35,4.71-.9.85-.68,1-2.24,1.81-2.82.12-3.47,2.25-3.71,6.42-.74a5.5,5.5,0,0,0,.85,1.65c1.8,1.24,2.34,3.33,5.1,3.44a7.11,7.11,0,0,0,2.93-.8c3.7-1.65,1.79-2.4,6.24-2.28,3.84.1,5,1.3,8.79-.29a36.82,36.82,0,0,0,9.92-10.88.91.91,0,0,0-1.37,0c-2.52,2.7-7,7-11,7.28-2.86.15-4.32-2.29-6.69-2.34-2.72,0-3.56,1.76-5.77,2.15-2.84.55-1.3,2.15-5.38-1.89-.77-.78-.78-2.24-1.76-2.85-2.58-1.64-4.25-2.68-7.45-1.61-2.23.76-2.92,2-4.4,3.78-3.3,4-1.85,2.05-6.19.31-1.18-.47-11,.33-10.87.34A34.16,34.16,0,0,0,134.21,450.32Z" style="fill:#455a64"></path><path d="M124.44,434.75c1.88,0,3.86.05,6.1.17,6.1.28,6.94-5.36,12.46-5.43,2.79,0,3.15,1.58,5.42,2.42a4,4,0,0,0,3.54,1c1.95,1.24,3.53,1,4.7-.78,4.74-1.28,6.26-2.5,11.35-1.08,4.14,1.12,1.79,4.37,8.2,2.37,1.47-.45,3.14-2.9,4.81-3.51,4.42-1.66,7.42-.14,11.26,1.89,5.66,3,5.78,4.32,12.7,2.39a31,31,0,0,1,3.27-1,34.32,34.32,0,0,1-1,4.27,10.25,10.25,0,0,1-.35,1v0c-3.16,1-7.56,2.85-8.62,2.89-4.08.14-4.52-2.67-7.63-3.83l-10.82-.23a8.52,8.52,0,0,1-2.12,1.95c-1,.29-1.57,1.18-2.63,1.38-3.32.6-3.24-.74-6.15-2-14-6-7.74.92-15.77,1.27-3.72.16-5.79-2.84-9.66-3-4.68-.2-5.41,2.56-9.69,2.92-1.74.13-2.2-.73-4.42-1.08a34.21,34.21,0,0,0-3.44-.36A32.71,32.71,0,0,1,124.44,434.75Z" style="fill:#455a64"></path><path d="M122.59,418.22c2.09-2.8,4.55-5,9.32-5.4,3.6-.28,6.72-.14,10-1.36,1-.37,1.76-1.36,2.85-1.7,3.86-1.18,4.94,1.34,8.16,2.36,4.27,1.33,7.65.42,11.38-.89,1.13-.42,2.15-1.41,3.37-1.65,4.28-.84,6.42,2.07,9.94,3.68,8,3.6,13.15-2.72,20.16-.27,4.13,1.45,5.27,6.58,10.26,7,.2,1.07.37,2.12.47,3.19a8.34,8.34,0,0,1-7-.49c-1.53-.79-2.68-3.23-4-3.85-3.05-1.42-7.18.59-10.16,1.1-3.44.57-6.65.77-10-.62-5-2.14-4.35-5-11.26-2.6-2.19.75-2.34,2.1-4.68,2.8a10.9,10.9,0,0,1-7.28-.24c-1.42-.56-3.23-2.85-4.55-3.21-6.46-1.74-4.88,1.74-8.92,2.5-4.41.84-7.58-.47-11.79,1.65a25,25,0,0,0-6.44,5.27A35.79,35.79,0,0,1,122.59,418.22Z" style="fill:#455a64"></path><path d="M132.23,397.88a37.4,37.4,0,0,1,5.23-4.57c3.09-.63,6.56-2.91,9.3-2.62a31,31,0,0,1,3,.8q3.66,3.56,9,1.21c.92-.4,1.87-.79,2.79-1.18,4.07-1,6.36-1.1,10.31.14.88.27,1.27,1.12,2.1,1.5,4.92,2.41,6,2.81,10.71,1.83a20.77,20.77,0,0,1,6.68-.43,44,44,0,0,1,11,11.66,1.28,1.28,0,0,1-1-.42c-6.07-6.67-11.59-4.27-19.11-4.14-2.61.06-3.55.82-6.16-.12-2.39-.88-3-3-5-4.06-8.29-4.58-7.76-.74-14.38-.14a18.55,18.55,0,0,1-4.22-.23,9.55,9.55,0,0,0-8.63-1.44,21.07,21.07,0,0,1-2.18,1.37A52.55,52.55,0,0,0,132.23,397.88Z" style="fill:#455a64"></path><path d="M193.21,456.65c-10.47,7.4-24.89,10-39,5.69a47.57,47.57,0,0,1-14.9-7.55h0a43.16,43.16,0,0,1-5-4.46,42.23,42.23,0,0,1-8.27-11.88,29.83,29.83,0,0,1-1.5-3.7,36.14,36.14,0,0,1-2-9.2,35.17,35.17,0,0,1,.13-7.32,37.37,37.37,0,0,1,1.26-6,35.78,35.78,0,0,1,8.37-14.33,38.06,38.06,0,0,1,5.23-4.57,41.8,41.8,0,0,1,13.63-6.47c-10.09,11.58-20.41,30.47-9.46,53.65C151.94,462.33,174.17,462.71,193.21,456.65Z" style="opacity:0.1"></path><path d="M174.43,391.61a29.46,29.46,0,0,1,12.84,3.91,29.82,29.82,0,0,1,10.2,9.33,28.05,28.05,0,0,1,3.09,6.35,26.78,26.78,0,0,1,1.29,6.88,28,28,0,0,1-2.62,13.21A66.79,66.79,0,0,0,198,418.6a36.69,36.69,0,0,0-1.83-5.75,34.15,34.15,0,0,0-2.81-5.23,40.33,40.33,0,0,0-8.24-8.86A76.85,76.85,0,0,0,174.43,391.61Z" style="fill:#fff;opacity:0.5"></path></g><g id="freepik--Character--inject-14"><path d="M101.49,316.18c1.07-3.16,57.81-77,61.65-78.41.44-.18,25.43,17.88,25.43,17.88,1,1.39,48.85-8.35,48.85-8.35l.06,57.6-87-2.48s-11.8,6.82-22.59,12.37h0c-6.64,3.44-12.52,6.34-14.19,6.76C109.34,322.63,100.39,319.33,101.49,316.18Z" style="fill:#ad6359"></path><path d="M113.7,321.55c1.68-.42,7.55-3.31,14.18-6.76,0,0,0,0,0,0,10.78-5.55,22.59-12.37,22.59-12.37l19.35.55,30.67-48.68c-6.66,1.13-11.63,1.8-12,1.35,0,0-25-18.06-25.42-17.87-3.85,1.4-60.59,75.24-61.66,78.41S109.34,322.64,113.7,321.55Z" style="fill:#fff"></path><path d="M101,316.28c1.13-3.25,58.12-77,62.07-78.49,1.5-.55,13.73,7.13,25.53,17.86l-36.8,47.53S118,320.75,113.51,321.87,99.84,319.52,101,316.28Z" style="fill:#a6a6a6"></path><path d="M104.74,317.5c9.86-12.14,48.47-62,57.29-74.76.07-.11,0-.16-.08-.06-10,11.81-48.24,62-57.41,74.66C104.34,317.61,104.53,317.75,104.74,317.5Z" style="fill:#263238"></path><path d="M119.83,319.17a12.54,12.54,0,0,0,2.7-9.73,12.22,12.22,0,0,0-4.47-7.87c-.08-.05-.19.08-.12.15a14.51,14.51,0,0,1,1.74,17.33A.1.1,0,1,0,119.83,319.17Z" style="fill:#263238"></path><path d="M147.54,306.1c3.89-4.89,6.58-12,4.9-18.19-.06-.24-.4-.14-.44.06a86.66,86.66,0,0,1-5.14,17.75A.39.39,0,0,0,147.54,306.1Z" style="fill:#263238"></path><path d="M143.1,308.78c3.89-4.9,6.57-12,4.9-18.2-.06-.24-.41-.14-.44.06a86.66,86.66,0,0,1-5.14,17.75A.4.4,0,0,0,143.1,308.78Z" style="fill:#263238"></path><path d="M138.65,311.45c3.9-4.9,6.58-12,4.91-18.2-.07-.24-.41-.14-.45.07A85.92,85.92,0,0,1,138,311.06.39.39,0,0,0,138.65,311.45Z" style="fill:#263238"></path><path d="M134.21,314.12c3.89-4.9,6.58-12,4.91-18.19-.07-.24-.41-.15-.45.06a86.36,86.36,0,0,1-5.13,17.74A.39.39,0,0,0,134.21,314.12Z" style="fill:#263238"></path><path d="M171.35,255c4.27-5.57-4.37-12.22-8.65-6.64S167.07,260.54,171.35,255Z" style="fill:#263238"></path><path d="M156.62,321.66c4-.9,4.42-5.63,3.45-8.84a32.84,32.84,0,0,0-9.18-14.28.16.16,0,0,0-.26,0,.76.76,0,0,0-1.09.58c-.28,5.41-1.26,11.15.12,16.49C150.47,318.77,152.82,322.51,156.62,321.66Zm-5.83-14.2c.07-2.67.28-5.31.25-8a96.17,96.17,0,0,1,5.18,8.46,35.77,35.77,0,0,1,1.95,4.39c.8,2.34,1.19,10.39-4.58,6.73C150.41,317,150.7,310.63,150.79,307.46Z" style="fill:#263238"></path><path d="M158.55,284.82c-4,3.8-6.2,9.2-8.81,13.94a.77.77,0,0,0,.62,1.07.16.16,0,0,0,.19.18,32.91,32.91,0,0,0,15.34-7.28c2.52-2.22,4.67-6.45,1.73-9.33C164.85,280.67,160.88,282.6,158.55,284.82Zm5.13-.81c6.83-.07,2.25,6.57.33,8.13a35.44,35.44,0,0,1-4,2.7,97.93,97.93,0,0,1-8.87,4.45c1.43-2.25,2.65-4.61,4-6.91C156.77,289.64,159.91,284.05,163.68,284Z" style="fill:#263238"></path><path d="M240.07,233.56l39.16-3.62s56.39-17.18,89.23-9c37.65,9.34,43.53,53.1,5.63,71.18-37.5,17.89-203.7,13.73-203.7,13.73l34.9-53.22S259.81,239,307.72,241L240,249.7Z" style="fill:#37474f"></path><path d="M240.61,244.71c5.82-1,11.72-1.6,17.59-2.22s11.87-1.14,17.81-1.6a353.36,353.36,0,0,1,35.65-1L315,240c.23-.07.49-.11.73-.17.57-.13,1.14-.27,1.72-.38,1.07-.2,2.15-.34,3.23-.5,2.25-.33,4.51-.55,6.75-.95a.11.11,0,0,1,.05.21c-2.25.48-4.46,1.12-6.72,1.59l-1.95.4c4.35.26,8.7.63,13.05,1.05.14,0,.14.23,0,.22-5.92-.39-11.88-.48-17.81-.42s-11.77.14-17.65.44c-11.9.59-23.79,1.57-35.64,2.72-6.65.65-13.32,1.43-20,1.66C240.11,245.88,240,244.82,240.61,244.71Z" style="fill:#263238"></path><path d="M187.39,304.38c2.15-3.39,4-7,6-10.5s4-7,6-10.51c4-7,18.16-30.48,19.56-32.12.09-.1.26,0,.22.14-.68,1.82-9.55,17.38-11.59,20.85-4.08,6.93-8.37,13.73-12.59,20.57-1.21,2-2.46,3.89-3.68,5.83s-2.52,3.86-3.65,5.85C187.5,304.61,187.31,304.5,187.39,304.38Z" style="fill:#263238"></path><path d="M382.69,323c-1-3.19-56.23-78.17-60.05-79.65-.44-.19-25.79,17.35-25.79,17.35-1.05,1.37-48.67-9.34-48.67-9.34L247,309l87-.72s11.66,7.06,22.33,12.83h0c6.56,3.57,12.38,6.59,14,7C374.71,329.3,383.72,326.18,382.69,323Z" style="fill:#ad6359"></path><path d="M370.37,328.12c-1.67-.45-7.48-3.46-14-7h0C345.62,315.31,334,308.25,334,308.25l-19.36.16-29.67-49.3c6.64,1.27,11.59,2,11.93,1.6,0,0,25.34-17.55,25.78-17.35,3.82,1.48,59,76.46,60.05,79.64S374.71,329.3,370.37,328.12Z" style="fill:#fff"></path><path d="M383.21,323.11c-1.07-3.27-56.55-78.21-60.47-79.73-1.48-.58-13.87,6.85-25.89,17.33L332.68,309s33.39,18.25,37.87,19.45S384.27,326.38,383.21,323.11Z" style="fill:#a6a6a6"></path><path d="M379.41,324.26c-9.61-12.34-47.2-63-55.76-75.91-.07-.11,0-.16.08-.06,9.79,12,47,63,55.89,75.81C379.81,324.37,379.61,324.52,379.41,324.26Z" style="fill:#263238"></path><path d="M364.29,325.62a12.56,12.56,0,0,1-2.5-9.79,12.17,12.17,0,0,1,4.63-7.77c.08-.05.18.08.11.15a14.51,14.51,0,0,0-2.08,17.29C364.51,325.61,364.37,325.72,364.29,325.62Z" style="fill:#263238"></path><path d="M336.86,312c-3.8-5-6.34-12.12-4.54-18.28.07-.24.41-.14.44.07a86.9,86.9,0,0,0,4.78,17.84A.39.39,0,0,1,336.86,312Z" style="fill:#263238"></path><path d="M341.24,314.76c-3.79-5-6.33-12.12-4.53-18.29.07-.24.41-.14.44.07a85.65,85.65,0,0,0,4.78,17.84A.4.4,0,0,1,341.24,314.76Z" style="fill:#263238"></path><path d="M345.63,317.52c-3.79-5-6.33-12.12-4.54-18.29.07-.24.41-.14.45.07a86.5,86.5,0,0,0,4.77,17.85A.39.39,0,0,1,345.63,317.52Z" style="fill:#263238"></path><path d="M350,320.28c-3.8-5-6.34-12.12-4.54-18.29.07-.24.41-.14.44.07a87.16,87.16,0,0,0,4.78,17.85A.39.39,0,0,1,350,320.28Z" style="fill:#263238"></path><path d="M314.09,260.38c-4.16-5.65,4.62-12.13,8.78-6.47S318.26,266,314.09,260.38Z" style="fill:#263238"></path><path d="M334.53,321.5c1.5-5.3.64-11.07.47-16.48a.77.77,0,0,0-1.08-.6.16.16,0,0,0-.26-.05,32.8,32.8,0,0,0-9.48,14.08c-1,3.2-.71,7.93,3.28,8.91C331.24,328.29,333.66,324.6,334.53,321.5Zm-4,3.32c-5.84,3.55-5.29-4.5-4.44-6.82a37.32,37.32,0,0,1,2-4.35c1.57-2.93,3.52-5.59,5.36-8.34-.08,2.66.07,5.31.09,8C333.61,316.46,333.76,322.86,330.54,324.82Z" style="fill:#263238"></path><path d="M317.23,288.88c-3,2.83-.92,7.1,1.55,9.37A32.79,32.79,0,0,0,334,305.84c.14,0,.2-.07.21-.18a.75.75,0,0,0,.63-1.05c-2.51-4.8-4.61-10.24-8.52-14.12C324,288.23,320.06,286.21,317.23,288.88Zm12.27,9.24c1.3,2.33,2.47,4.7,3.85,7a96.4,96.4,0,0,1-8.77-4.62,34.6,34.6,0,0,1-3.91-2.78c-1.89-1.6-6.34-8.33.5-8.12C324.93,289.69,328,295.34,329.5,298.12Z" style="fill:#263238"></path><path d="M245.78,233.68l-39-.51S166.16,213,133.16,220.49c-37.82,8.57-43.26,55.87-15.29,73,35.43,21.68,194.4,19.64,194.4,19.64l-33.6-58.67S226,242.64,178,243.62l58.13,3.64,4.6-1.4Z" style="fill:#37474f"></path><path d="M280.91,258.23a1.32,1.32,0,0,1-.07-.3c0-.08,0-.16,0-.24l-.15-.56a11.06,11.06,0,0,0-.38-1.15c-.14-.38-.3-.75-.47-1.11a8.46,8.46,0,0,0-.63-1s-.06,0-.09-.07l-.06,0-.08,0a.32.32,0,0,0-.09,0c-5.8-1.16-45.21-7.33-51.08-8.07s-11.84-1.38-17.77-2a353.07,353.07,0,0,0-35.62-1.74c-1.11,0-2.23,0-3.34.05-.23-.08-.49-.12-.73-.18-.57-.15-1.13-.3-1.71-.42-1.07-.22-2.15-.39-3.22-.57-2.25-.37-4.5-.64-6.73-1.08-.14,0-.19.17-.06.2,2.25.53,4.45,1.21,6.69,1.73l1.95.44c-4.36.17-8.72.45-13.08.79-.13,0-.14.22,0,.22,5.92-.27,11.89-.24,17.81-.06s11.77.38,17.65.79c11.88.84,23.74,2.06,35.57,3.45,6.64.79,46.82,7.19,53.5,7.55h.08a2.92,2.92,0,0,0,.18.46c.17.36.35.72.55,1.08a11,11,0,0,0,.58,1l.32.49c.05.08.11.16.16.25a.85.85,0,0,1,.17.25A.11.11,0,1,0,280.91,258.23Z" style="fill:#263238"></path><path d="M299.92,309.42c-2.08-3.43-3.85-7.08-5.75-10.62s-3.81-7.09-5.73-10.63c-3.81-7.06-17.54-30.83-18.9-32.5-.09-.11-.27,0-.23.13.64,1.83,9.19,17.57,11.17,21.08,3.94,7,8.08,13.89,12.17,20.83,1.17,2,2.37,3.93,3.56,5.9s2.44,3.9,3.53,5.92C299.8,309.65,300,309.54,299.92,309.42Z" style="fill:#263238"></path><path d="M220.54,132.78c-30.21,19.65-62.84,54.44-65,75.85-2.1,21.14,13.37,16.93,15.42,16.46,21.69-4.92,48.42-58.62,59.74-81.8C242,120.28,228,127.93,220.54,132.78Z" style="fill:#ad6359"></path><path d="M172.5,173.2l32.14,20.55s23.52-36.92,29.57-54.38-1.14-17.45-17.85-4.73S172.5,173.2,172.5,173.2Z" style="fill:#c7c7c7"></path><path d="M234.21,139.37c-6.06,17.46-29.57,54.38-29.57,54.38l-11.06-7.08,42.57-58.51C236.66,130.37,236.05,134.07,234.21,139.37Z" style="fill:#a6a6a6"></path><path d="M179.74,168.56c12.28,9.64,24.37,16.2,26.77,17.82.11.07.22-.12.1-.19-2.44-1.46-15.55-11-26.75-17.83C179.73,168.28,179.62,168.47,179.74,168.56Z" style="fill:#263238"></path><path d="M196.91,230.59c.66.77,24.53,8.94,46.63,8.53,23.57-.43,47.55-6.17,47.8-6.45,1.32-1.51-15.56-79.35-31.78-102.95-5.47-8-22.55-9.37-28.4-1.49C214.37,150.82,195.72,229.2,196.91,230.59Z" style="fill:#c7c7c7"></path><path d="M265.37,132.22c29.38,20.86,60.55,57,61.8,78.45,1.23,21.21-10.77,19.53-12.8,19-21.47-5.81-49.25-63.73-59.6-87.36C244.49,118.84,258.11,127.06,265.37,132.22Z" style="fill:#ad6359"></path><path d="M312.86,173.28l-32.47,20s-22.93-37.28-28.7-54.84,1.41-17.43,17.92-4.44S312.86,173.28,312.86,173.28Z" style="fill:#c7c7c7"></path><path d="M305.69,168.54c-12.43,9.44-24.62,15.8-27.05,17.38-.11.08-.22-.12-.1-.19,2.46-1.42,15.72-10.73,27-17.4C305.7,168.25,305.81,168.44,305.69,168.54Z" style="fill:#263238"></path><path d="M282.48,192a19.54,19.54,0,0,0-2,1c-3.42-6.21-2.79-4.78-6.27-11q-2.57-4.55-5.12-9.1c-1.76-3.15-3.37-6.45-5.3-9.5a.08.08,0,0,0-.15.07c1.17,3,2.71,5.91,4.18,8.8-.32-.45-.62-.9-1-1.33-.77-1-1.53-1.91-2.22-2.93-.1-.15-.36,0-.26.14.66,1,1.25,2,1.83,3s1.23,2,1.88,3,1.32,1.83,2,2.72l.26.33c.93,1.81,1.84,3.62,2.82,5.41a87.8,87.8,0,0,0,7,11.11,16.83,16.83,0,0,0,2.35-1.49C282.66,192.05,282.57,191.94,282.48,192Z" style="fill:#263238"></path><path d="M236.61,142.52c5.13,1.44,14.34-6.1,18.12-12.36.26-.43-.22-5.09-.54-10.79-.17-3.45-.29-7.3-.14-10.82,0-.73-22.32,4.44-22.32,4.44a55.81,55.81,0,0,1,1.57,13.61,8,8,0,0,1-.21,1.44c0,.06,0,.14,0,.24C232.48,131,231.66,141.13,236.61,142.52Z" style="fill:#ad6359"></path><path d="M252.68,108.58c-1.27,5.91-5.58,20.14-17.37,19.92a14,14,0,0,1-2.26-.22,1.33,1.33,0,0,1,0-.24,9.23,9.23,0,0,0,.22-1.44A56.16,56.16,0,0,0,231.73,113S247.85,109.26,252.68,108.58Z" style="fill:#263238"></path><path d="M255.56,80.62c2.93,7.66.39,30.54-4.82,36-7.56,7.87-20.71,9.49-27.59.23-6.67-9-2.82-38.73,3.07-43.74C234.9,65.69,251.23,69.32,255.56,80.62Z" style="fill:#ad6359"></path><path d="M255.56,80.62c2.93,7.66.39,30.54-4.82,36-7.56,7.87-20.71,9.49-27.59.23-6.67-9-2.82-38.73,3.07-43.74C234.9,65.69,251.23,69.32,255.56,80.62Z" style="fill:#ad6359"></path><path d="M237.42,97.29c0-.06.12.08.11.14-.14,1.54-.05,3.34,1.32,3.94,0,0,0,.09,0,.08C237.14,101.11,237,98.73,237.42,97.29Z" style="fill:#263238"></path><path d="M238.91,95.76c2.5,0,2.38,5,.07,5S236.81,95.78,238.91,95.76Z" style="fill:#263238"></path><path d="M227.89,97c0-.06-.12.07-.12.13,0,1.55-.23,3.33-1.65,3.81,0,0,0,.1,0,.09C227.85,100.82,228.15,98.45,227.89,97Z" style="fill:#263238"></path><path d="M226.55,95.34c-2.49-.25-2.8,4.74-.5,5S228.63,95.54,226.55,95.34Z" style="fill:#263238"></path><path d="M241.22,91.45c-.7-.07-1.33-.25-2-.38a3.35,3.35,0,0,1-2-.78,1.05,1.05,0,0,1,0-1.29,2.61,2.61,0,0,1,2.57-.67,3.83,3.83,0,0,1,2.45,1.3A1.14,1.14,0,0,1,241.22,91.45Z" style="fill:#263238"></path><path d="M224.62,93a19.4,19.4,0,0,0,2-.48,3.29,3.29,0,0,0,1.95-.86,1.07,1.07,0,0,0,0-1.3,2.62,2.62,0,0,0-2.6-.55,3.86,3.86,0,0,0-2.39,1.42A1.13,1.13,0,0,0,224.62,93Z" style="fill:#263238"></path><path d="M237.93,111.36c-.38.35-.76.84-1.33.88a4.21,4.21,0,0,1-1.66-.43.05.05,0,0,0-.06.08,2.07,2.07,0,0,0,1.94.88,1.62,1.62,0,0,0,1.25-1.34C238.1,111.34,238,111.31,237.93,111.36Z" style="fill:#263238"></path><path d="M236.4,106.68a5.3,5.3,0,0,1-3.57,2.27,6.72,6.72,0,0,1-1.9,0,2.2,2.2,0,0,1-.37,0l-.33-.06a.39.39,0,0,1-.31-.35v0c0-.05,0-.1,0-.15h0v-.14c0-1.2.15-3,.15-3-.44.21-2.69,1.16-2.64.54.43-5.16.9-10.89,2.42-15.93a.14.14,0,0,1,.28,0c-.22,5-1.3,9.87-1.6,14.86a9,9,0,0,1,2.51-.7c.17,0-.36,3.49-.32,4a.28.28,0,0,0,0,.06c2,.3,3.52-.27,5.5-1.57C236.38,106.45,236.5,106.56,236.4,106.68Z" style="fill:#263238"></path><path d="M231.64,108.4a6.31,6.31,0,0,0,2.47,2,2.83,2.83,0,0,0,1.71.15c1.24-.3,1.3-1.43,1.09-2.41a6.29,6.29,0,0,0-.52-1.5A8.08,8.08,0,0,1,231.64,108.4Z" style="fill:#263238"></path><path d="M234.11,110.4a2.83,2.83,0,0,0,1.71.15c1.24-.3,1.3-1.43,1.09-2.41A2.89,2.89,0,0,0,234.11,110.4Z" style="fill:#ff97b8"></path><path d="M256,99.66c-4.09-1-6.67-14.48-6.67-14.48s.26,5.75-.83,5.66-5.8-7.74-6.52-13.33A44,44,0,0,1,232,82.91c-5.07,1.73-10.75,1.61-10.79.74-.1-2.59,2-9.46,5.43-12,3.95-2.92,9.64-5.82,18.13-2.94S255.64,76.88,257,81,257.55,100,256,99.66Z" style="fill:#263238"></path><path d="M252.54,98.65s4.3-7.83,7.8-6.37.81,12.43-2.91,14.29a4,4,0,0,1-5.52-1.55Z" style="fill:#ad6359"></path><path d="M259.49,95.4c.06,0,.08.08,0,.11-2.6,1.39-3.76,4.07-4.48,6.79a2.2,2.2,0,0,1,3.2-1,.09.09,0,0,1-.06.16,2.44,2.44,0,0,0-2.58,1.13,12,12,0,0,0-1,2.3c-.1.26-.55.17-.49-.12,0,0,0,0,0-.06C253.63,101.3,255.81,96.15,259.49,95.4Z" style="fill:#263238"></path><path d="M234.15,68.48a32.71,32.71,0,0,1,9.17-2.76c3.55-.46,10.9-1.15,16.52,3.72,4.65,4,4.37,11.69,4.45,13.23s-.59,10.89-4,13.15-3.75-13.6-9.1-18.84S234.15,68.48,234.15,68.48Z" style="fill:#455a64"></path><path d="M234.15,68.48s11.72,3.25,17.07,8.5,5.73,21.1,9.11,18.84c1.49-1,2.21-2.47,2.81-5-.72-4.63-2.62-11.81-6.49-16.79-3.64-4.65-9.87-7-16.54-7.73A38.89,38.89,0,0,0,234.15,68.48Z" style="fill:#37474f"></path><path d="M259.43,105.24c-.31-4.23-4.65-15.53-9.17-22S232.46,73,230.61,73.12c-4.5.28-6,1.64-6.74,1.24s3.91-3.79,5.18-4.55,4.66-2.57,6.62-2.52,14,1.2,18.42,6.33,10.64,19.53,9.51,23.22c-.27.89-1.44,1.46-1.81,2.72-.49,1.65-.83,3.55-1.33,4.71C260.06,105.2,259.46,105.61,259.43,105.24Z" style="fill:#455a64"></path><path d="M249.21,80.33a22,22,0,0,0,2.92-2.16,15.38,15.38,0,0,0,2.49-2.67c0-.08.17,0,.12.06a11.71,11.71,0,0,1-2.26,3,10,10,0,0,1-3.17,2C249.18,80.59,249.1,80.4,249.21,80.33Z" style="fill:#263238"></path><path d="M259.46,101c.12-.31.32-.58.46-.87a5.78,5.78,0,0,0,.39-1.05,9,9,0,0,1,.48-2,7.25,7.25,0,0,1,1-1.41,2.83,2.83,0,0,0,.83-1.72c0-.09.14-.1.14,0,0,1.29-.85,2.2-1.41,3.28a12.7,12.7,0,0,0-.57,2.2,3.38,3.38,0,0,1-1.11,1.77C259.56,101.21,259.42,101.12,259.46,101Z" style="fill:#263238"></path><path d="M258,96.45A16.43,16.43,0,0,0,259.17,95a12.36,12.36,0,0,0,.9-1.58c.27-.54.49-1.09.74-1.64s.68-1.25.95-1.9c0-.08.16,0,.13.07-.28.67-.44,1.4-.7,2.09a14.23,14.23,0,0,1-.8,1.73,9.07,9.07,0,0,1-1,1.52A4.46,4.46,0,0,1,258,96.51,0,0,0,0,1,258,96.45Z" style="fill:#263238"></path><path d="M256.44,92.32a11.85,11.85,0,0,0,2.29-2.6c.61-1,1.17-2,1.71-2.94,0-.07.16,0,.13,0A14,14,0,0,1,259.13,90a7.37,7.37,0,0,1-1.08,1.34,7.66,7.66,0,0,1-1.52,1.06C256.46,92.48,256.37,92.38,256.44,92.32Z" style="fill:#263238"></path><path d="M254.75,88.37a4,4,0,0,0,1.12-1.13c.36-.48.72-1,1.06-1.46s.66-.93,1-1.41a4.23,4.23,0,0,0,.76-1.55c0-.08.14-.07.13,0a4.14,4.14,0,0,1-.48,1.65,10.48,10.48,0,0,1-.95,1.66,13.81,13.81,0,0,1-1.18,1.47,2.74,2.74,0,0,1-1.36.94C254.73,88.57,254.65,88.43,254.75,88.37Z" style="fill:#263238"></path><path d="M253.53,83.36c.39-.39.78-.77,1.14-1.19s.69-.84,1-1.28.7-.91,1-1.38a.07.07,0,1,1,.12.06,11.06,11.06,0,0,1-.77,1.54,13.52,13.52,0,0,1-1,1.37,13.31,13.31,0,0,1-1.16,1.22,4.35,4.35,0,0,1-1.37,1,.1.1,0,0,1-.12-.14A8.26,8.26,0,0,1,253.53,83.36Z" style="fill:#263238"></path><path d="M246,77.93a18.52,18.52,0,0,1,1.29-1.5,17.64,17.64,0,0,1,1.49-1.38A18.54,18.54,0,0,1,252,72.83c.06,0,.15,0,.09.11-2,1.72-4.07,3.35-6.05,5.09C246,78.09,245.91,78,246,77.93Z" style="fill:#263238"></path><path d="M243.4,74.32A8.78,8.78,0,0,1,244.83,73a19.11,19.11,0,0,1,3.61-2c.08,0,.15.07.08.12-1.1.73-2.2,1.45-3.26,2.24-.51.39-1,.8-1.5,1.24s-.84,1-1.29,1.46c0,0-.11,0-.09,0A4.93,4.93,0,0,1,243.4,74.32Z" style="fill:#263238"></path><path d="M239.87,72.68a9.5,9.5,0,0,1,1.32-1.37,10.8,10.8,0,0,1,3.09-1.82c.07,0,.12.09.05.13a20.71,20.71,0,0,0-2.9,2.12c-.46.39-.89.81-1.33,1.23s-.81.93-1.28,1.29c0,0-.08,0-.06-.06A9.7,9.7,0,0,1,239.87,72.68Z" style="fill:#263238"></path><path d="M237.32,70.58c.44-.37.91-.7,1.37-1a5.47,5.47,0,0,1,1.47-.83c.08,0,.11.08.05.13-.86.69-1.71,1.4-2.56,2.11a14.64,14.64,0,0,0-2,2.33s-.09,0-.08,0A5.34,5.34,0,0,1,237.32,70.58Z" style="fill:#263238"></path><path d="M234.15,69.91A8.52,8.52,0,0,1,237,68.14a.07.07,0,0,1,.06.13,10.7,10.7,0,0,0-2.56,1.93,14.89,14.89,0,0,0-2,2.52s-.11,0-.09,0A7.26,7.26,0,0,1,234.15,69.91Z" style="fill:#263238"></path><path d="M230,71.81a5,5,0,0,1,.36-.64A6.92,6.92,0,0,1,231.3,70a15.4,15.4,0,0,1,2.39-1.85c.07,0,.15.07.07.12a13.1,13.1,0,0,0-2.24,1.9,10.88,10.88,0,0,0-.9,1.13c-.13.19-.26.4-.37.6a4.48,4.48,0,0,1-.35.6.07.07,0,0,1-.12-.05A2,2,0,0,1,230,71.81Z" style="fill:#263238"></path><path d="M227.46,72a11.42,11.42,0,0,1,.77-1,10,10,0,0,1,.87-.85c.32-.26.65-.52,1-.81.07-.06.17,0,.09.11a7.57,7.57,0,0,0-.9.89l-.79.89-.78.89a11.59,11.59,0,0,1-.79.92.06.06,0,0,1-.09-.07A5.07,5.07,0,0,1,227.46,72Z" style="fill:#263238"></path><path d="M257.4,131.81a103,103,0,0,1-7.77,8.52c-2.65,2.45-5.82,4.66-9.44,5s-7-.36-8.31-4.64c-1-3.39-.88-6.89-.3-11.24,0-.2-.24-.24-.26,0-.77,5.61-1.58,14.29,3.53,16.21,5.7,2.14,11.28-.82,15.27-4.77a52.61,52.61,0,0,0,7.38-9C257.54,131.83,257.45,131.75,257.4,131.81Z" style="fill:#263238"></path><path d="M281.65,115.39s-5.06,40-47.12,38.74-46.39-41.54-46.39-41.54l4.87.15,2.5.08,26.4.78v0a3.38,3.38,0,0,0,3.17,3.34,3.4,3.4,0,0,0,6.08,1.25,3.52,3.52,0,0,0,1.62.39,3.4,3.4,0,0,0,3-1.91,3.93,3.93,0,0,0,1,.13,3.39,3.39,0,0,0,3.27-2.69l29.24.86,5.13.16,2.37.07Z" style="fill:#455a64"></path><path d="M276.78,115.24s-4.53,35.83-42.22,34.71c-37.36-1.11-41.48-36.61-41.55-37.21h0l28.9.86v0a3.38,3.38,0,0,0,3.17,3.34,3.4,3.4,0,0,0,6.08,1.25,3.52,3.52,0,0,0,1.62.39,3.4,3.4,0,0,0,3-1.91,3.93,3.93,0,0,0,1,.13,3.39,3.39,0,0,0,3.27-2.69h0l29.24.87,5.13.16Z" style="fill:#fff"></path><path d="M274.41,115.17c-.76,4.4-6.91,33.19-39.76,32.2s-38.48-30.13-39.14-34.55l26.4.79v0a3.38,3.38,0,0,0,3.17,3.34,3.4,3.4,0,0,0,6.08,1.25,3.52,3.52,0,0,0,1.62.39,3.4,3.4,0,0,0,3-1.91,3.93,3.93,0,0,0,1,.13,3.39,3.39,0,0,0,3.27-2.69l29.24.86Z" style="fill:#41783B"></path><path d="M210.06,118.93c-.6-.17-3.07,3.4-1.13,4S210.66,119.1,210.06,118.93Z" style="fill:#263238"></path><path d="M225.45,123.64c-.6-.17-3.08,3.4-1.13,4S226.05,123.81,225.45,123.64Z" style="fill:#263238"></path><path d="M215.82,130.42c-.56-.27-3.6,2.83-1.78,3.7S216.38,130.69,215.82,130.42Z" style="fill:#263238"></path><path d="M257.14,130c-.57.23-.36,4.57,1.52,3.83S257.72,129.81,257.14,130Z" style="fill:#263238"></path><path d="M236.27,118.16c-.62-.06-2.4,3.9-.39,4.09S236.89,118.22,236.27,118.16Z" style="fill:#263238"></path><path d="M236.71,136.29c-.62-.06-2.4,3.9-.39,4.09S237.33,136.34,236.71,136.29Z" style="fill:#263238"></path><path d="M263.48,119.88c-.58.24-.31,4.57,1.56,3.8S264.05,119.64,263.48,119.88Z" style="fill:#263238"></path><path d="M247.2,124.41c-.61.14-1.07,4.46.9,4S247.81,124.28,247.2,124.41Z" style="fill:#263238"></path><path d="M256.35,150.24a49.29,49.29,0,0,1-21.82,3.89c-42.06-1.25-46.39-41.54-46.39-41.54l4.87.15,2.5.08,7.9.23C204.4,122.64,211.14,157,256.35,150.24Z" style="opacity:0.1"></path><path d="M318.55,228.77c-9.33-2.18-14.82-16.5-28.87-51.8-1.94-4.89,28.85-27.89,31.19-22.78,2.95,6.44,13.15,32,13.52,34C338.66,211.39,327.69,230.9,318.55,228.77Z" style="fill:#ad6359"></path><path d="M324.38,169.21s-.87-15-3.77-22.79c-3.89-10.39-11.52-17.76-14.9-20.66-7.07-6-28.33-15.77-32.2-10.14-3.5,5.1,18.73,13.95,18.73,13.95s-21.18-12.76-24.27-5.84,23.3,15.72,23.3,15.72-22-12.63-24.11-5c-1.56,5.77,21.9,15.09,21.9,15.09s-19-10.72-20.89-4.85c-2.05,6.48,19.07,16.44,19.07,16.44-2.21,15.7,3.17,24.08,7.7,29.59C296,192.06,324.38,169.21,324.38,169.21Z" style="fill:#ad6359"></path><path d="M299.85,133.52c-2.43-1.59-4.89-3.22-7.45-4.59s-5.19-2.64-7.87-3.76a49.79,49.79,0,0,0-10.85-3.38c6.53,1.74,15.8,6.49,18.36,7.86s5.2,2.6,7.76,4C299.86,133.65,299.91,133.55,299.85,133.52Z" style="fill:#263238"></path><path d="M295.08,142.87c-3.2-1.89-6.3-3.89-9.58-5.64s-6.51-3.12-9.89-4.63c-.26-.12-.24.06,0,.18,3.31,1.65,6.25,3.44,9.54,5.12s6.65,3.25,9.87,5C295.09,143,295.13,142.9,295.08,142.87Z" style="fill:#263238"></path><path d="M292.43,151.64a83,83,0,0,0-15.31-7.51c-.26-.11-.2.12.06.24,5.13,2.4,9.18,4.25,15.14,7.44C292.42,151.86,292.53,151.71,292.43,151.64Z" style="fill:#263238"></path><path d="M291.73,186.33c.52.74,1.1,1.44,1.66,2.15l1.75,2.09,0,0,0,0,7.12,15.86c1.19,2.64,2.41,5.26,3.63,7.88s2.52,5.21,4,7.7a53.66,53.66,0,0,1-4.62-7.38c-1.4-2.55-2.69-5.16-3.91-7.79s-2.4-5.29-3.52-8-2.16-5.39-3.19-8.1l0,.06c-.54-.73-1.06-1.48-1.57-2.24A24.19,24.19,0,0,1,291.73,186.33Z" style="fill:#263238"></path><path d="M168.62,225.22c8.86-3.66,9.83-16.37,20.44-52.86,1.46-5.05-31.38-25-33.23-19.68-2.32,6.69-9.89,33.15-10.2,35.16C143,204.75,156.15,230.38,168.62,225.22Z" style="fill:#ad6359"></path><path d="M153.78,168s-.57-15.05,1.57-23.05c2.87-10.71,9.77-18.78,12.86-22,6.45-6.69,26.68-18.41,31.08-13.17,4,4.74-17.31,15.68-17.31,15.68s19.86-14.73,23.6-8.14-21.7,17.87-21.7,17.87,20.75-14.67,23.53-7.27c2.1,5.6-20.36,17.12-20.36,17.12s17.92-12.49,20.33-6.83c2.66,6.26-17.4,18.19-17.4,18.19,3.69,15.42-.86,24.28-4.84,30.19C184.17,188,153.78,168,153.78,168Z" style="fill:#ad6359"></path><path d="M174.78,130.08c2.27-1.81,4.56-3.67,7-5.27s4.91-3.13,7.47-4.51a49.19,49.19,0,0,1,10.48-4.39c-6.34,2.35-15.11,8-17.53,9.58s-4.92,3.08-7.34,4.69C174.78,130.22,174.73,130.12,174.78,130.08Z" style="fill:#263238"></path><path d="M180.42,138.94c3-2.19,5.9-4.48,9-6.54s6.18-3.72,9.4-5.55c.24-.15.24,0,0,.19-3.14,2-5.89,4-9,6s-6.31,3.88-9.34,6C180.42,139.05,180.38,139,180.42,138.94Z" style="fill:#263238"></path><path d="M183.9,147.41a83.11,83.11,0,0,1,14.51-8.94c.26-.13.22.1,0,.25-4.88,2.88-8.73,5.11-14.36,8.85C183.93,147.63,183.8,147.49,183.9,147.41Z" style="fill:#263238"></path><path d="M187.46,182.76a9.51,9.51,0,0,1-2.16,4l.06-.1c-.57,2.77-1.17,5.54-1.87,8.29s-1.45,5.48-2.27,8.19-1.73,5.41-2.77,8.06a42.53,42.53,0,0,1-3.69,7.66,67.35,67.35,0,0,0,3-7.9q1.29-4,2.49-8.1l2.34-8.14,2.3-8.17,0-.07,0,0a10,10,0,0,0,1.44-1.67A9.54,9.54,0,0,0,187.46,182.76Z" style="fill:#263238"></path></g><g id="freepik--speech-bubble--inject-14"><path d="M347.37,72.64a28.75,28.75,0,0,1-48,18.19l-14.39,2.11,7.2-12.44a28.76,28.76,0,1,1,55.23-7.86Z" style="fill:#fff"></path><path d="M347.37,72.64a29,29,0,0,1-5.8,14.58,32.23,32.23,0,0,1-2.61,3,33.72,33.72,0,0,1-3,2.57A28.43,28.43,0,0,1,329,96.65a29,29,0,0,1-7.74,1.85,28.09,28.09,0,0,1-4,.07,25.46,25.46,0,0,1-4-.41,29,29,0,0,1-14.22-7l.34.11L285,93.44l-1,.16.53-.91,7.15-12.47,0,.49a29.07,29.07,0,0,1,1.77-25.63,29.41,29.41,0,0,1,9-9.59,29.28,29.28,0,0,1,25.28-3.4,29.44,29.44,0,0,1,11.09,6.8A28.9,28.9,0,0,1,347.37,72.64Zm0,0a28.43,28.43,0,0,0-32.61-31.12,28.23,28.23,0,0,0-11.88,4.69,29.68,29.68,0,0,0-8.6,9.38,28.38,28.38,0,0,0-3.65,12.17,28.85,28.85,0,0,0,2,12.53l.11.26-.14.23L285.38,93.2l-.52-.76,14.4-2,.2,0,.15.13a28.27,28.27,0,0,0,13.77,7.1,24.29,24.29,0,0,0,3.9.47,27.3,27.3,0,0,0,11.61-1.69,27,27,0,0,0,6.94-3.74,33.52,33.52,0,0,0,3-2.54,30.64,30.64,0,0,0,2.61-3A28.81,28.81,0,0,0,347.37,72.64Z" style="fill:#263238"></path><path d="M331,75.07a37.61,37.61,0,0,1-12.08,10.48,37.64,37.64,0,0,1-12.07-10.48c-4.26-5.63-4.05-14.44,2-16.35,6.73-2.1,10,8,10,8s3.36-10.19,10-8C335,60.7,335.22,69.44,331,75.07Z" style="fill:#41783B"></path></g></svg>