<svg xmlns="http://www.w3.org/2000/svg" viewBox="0 0 500 500"><g id="freepik--background-simple--inject-39"><path d="M299.91,203.27C233.53,187.37,213.67,47.93,112.85,127,41.32,183.09,80.6,314.22,168.91,296.48,222.37,285.74,214.18,285,258.57,309c45,24.28,94.93,35.74,145-10.75,25.89-24.06,37.35-81.33,13.61-110.18C387.47,152,340.47,213,299.91,203.27Z" style="fill:#5120BA"></path><path d="M299.91,203.27C233.53,187.37,213.67,47.93,112.85,127,41.32,183.09,80.6,314.22,168.91,296.48,222.37,285.74,214.18,285,258.57,309c45,24.28,94.93,35.74,145-10.75,25.89-24.06,37.35-81.33,13.61-110.18C387.47,152,340.47,213,299.91,203.27Z" style="fill:#fff;opacity:0.9"></path></g><g id="freepik--Shadow--inject-39"><ellipse id="freepik--path--inject-39" cx="250" cy="416.24" rx="193.89" ry="11.32" style="fill:#f5f5f5"></ellipse></g><g id="freepik--Character--inject-39"><path d="M326.07,411.21l-17.65-4.12V357.24h-5.94v29.43H201v4.47H302.48v15.95l-17.64,4.12a1.9,1.9,0,0,0-1.47,1.85v3.05h44.16v-3.05A1.89,1.89,0,0,0,326.07,411.21Z" style="fill:#263238"></path><path d="M326.07,411.21l-17.65-4.12V357.24h-5.94v29.43H201v4.47H302.48v15.95l-17.64,4.12a1.9,1.9,0,0,0-1.47,1.85v3.05h44.16v-3.05A1.89,1.89,0,0,0,326.07,411.21Z" style="fill:#fff;opacity:0.1;isolation:isolate"></path><path d="M205.36,407.09V357.24h-5.94v49.85l-17.65,4.12a1.89,1.89,0,0,0-1.46,1.85v3.05h44.16v-3.05a1.9,1.9,0,0,0-1.47-1.85Z" style="fill:#263238"></path><path d="M205.36,407.09V357.24h-5.94v49.85l-17.65,4.12a1.89,1.89,0,0,0-1.46,1.85v3.05h44.16v-3.05a1.9,1.9,0,0,0-1.47-1.85Z" style="fill:#fff;opacity:0.2;isolation:isolate"></path><path d="M181,351.16H325.61a0,0,0,0,1,0,0v7.07a1.35,1.35,0,0,1-1.35,1.35H182.33a1.35,1.35,0,0,1-1.35-1.35v-7.07A0,0,0,0,1,181,351.16Z" style="fill:#263238"></path><path d="M325.61,351.16v7.06a1.35,1.35,0,0,1-1.35,1.35H182.33a1.35,1.35,0,0,1-1.35-1.35v-7.06Z" style="fill:#fff;opacity:0.2;isolation:isolate"></path><path d="M325.61,351.16v7.06a1.35,1.35,0,0,1-1.35,1.35H226.6v-8.41Z" style="opacity:0.2;isolation:isolate"></path><path d="M337.28,348a6.15,6.15,0,0,1-6.13,6.13H175.44a6.13,6.13,0,0,1,0-12.26H331.15A6.15,6.15,0,0,1,337.28,348Z" style="fill:#5120BA"></path><path d="M237.22,348a6.15,6.15,0,0,1-6.14,6.13H175.44a6.13,6.13,0,0,1,0-12.26h55.64A6.15,6.15,0,0,1,237.22,348Z" style="fill:#fff;opacity:0.2;isolation:isolate"></path><g id="freepik--group--inject-39"><path d="M286.94,297.34l-.58,4s-19.54-1.79-24.23-2.5c-2.25-.34-4.29-4.21-5.85-9.22a76.79,76.79,0,0,1-3-15.77c-.05-.5-.08-1-.11-1.46l-2.17-1,9.15-11.54s7.41,1,8.75,5-1.64,8.61-1.64,8.61a23,23,0,0,0,1.45,6.32c1.19,2.83-.57,5.91-.57,5.91l-1.1,3.76C274.63,290.67,286.94,297.34,286.94,297.34Z" style="fill:#ebb376"></path><path d="M296.88,303.16l2.86.35c3.24.39,6.27-2.6,6.76-6.69s-1.72-7.73-4.95-8.12l-2.86-.35c-3.24-.4-6.27,2.6-6.77,6.69S293.64,302.76,296.88,303.16Z" style="fill:#263238"></path><path d="M296.88,303.16l2.86.35c3.24.39,6.27-2.6,6.76-6.69s-1.72-7.73-4.95-8.12l-2.86-.35c-3.24-.4-6.27,2.6-6.77,6.69S293.64,302.76,296.88,303.16Z" style="fill:#fff;opacity:0.1;isolation:isolate"></path><path d="M291.92,295c.5-4.09,3.53-7.09,6.77-6.69s5.45,4,4.95,8.12-3.52,7.08-6.76,6.69S291.43,299.13,291.92,295Z" style="fill:#fff;opacity:0.2;isolation:isolate"></path><path d="M285.73,297.2l10.66,1.3c1.25.16,2.43-1,2.63-2.6s-.67-3-1.93-3.15l-10.65-1.3a2.65,2.65,0,0,0-2.63,2.6C283.62,295.64,284.48,297.05,285.73,297.2Z" style="fill:#263238"></path><path d="M294.84,302.82c1.12,0,4.15-6.12,4.31-8s-8.55-4.44-8.55-4.44l-6.12,11.29S293.45,302.82,294.84,302.82Z" style="fill:#ebb376"></path><path d="M281.61,301.3l2.87.35c3.23.39,6.26-2.61,6.76-6.69s-1.72-7.73-5-8.12l-2.86-.35c-3.24-.4-6.26,2.6-6.76,6.69S278.38,300.9,281.61,301.3Z" style="fill:#263238"></path><path d="M281.61,301.3l2.87.35c3.23.39,6.26-2.61,6.76-6.69s-1.72-7.73-5-8.12l-2.86-.35c-3.24-.4-6.26,2.6-6.76,6.69S278.38,300.9,281.61,301.3Z" style="fill:#fff;opacity:0.1;isolation:isolate"></path><path d="M276.66,293.18c.5-4.09,3.52-7.09,6.76-6.69s5.45,4,5,8.12-3.53,7.08-6.77,6.69S276.16,297.27,276.66,293.18Z" style="fill:#fff;opacity:0.2;isolation:isolate"></path><path d="M256.28,289.61a76.79,76.79,0,0,1-3-15.77c1.61-1.57,3-2.77,3-2.77S258.74,281.45,256.28,289.61Z" style="opacity:0.2;isolation:isolate"></path><path d="M215.08,298.93l37.53,2.17,2,9.46,23.17,3.64s4.75,14.4-6.2,30.62c0,0-33.73.93-47.4.93C206.4,345.75,215.08,298.93,215.08,298.93Z" style="fill:#263238"></path><path d="M240.43,311a.24.24,0,0,1-.2-.11c-.89-1.27-1.7-4.52-2.08-6.23-.45,1.66-1.44,4.7-3,5.54a.25.25,0,1,1-.24-.43c1.41-.78,2.36-3.83,2.77-5.38-.94,1-2.69,2.51-4.17,2.6a1.75,1.75,0,0,1-1.33-.46c-.8-.74-.78-1.34-.62-1.72.5-1.17,3-1.76,6.59-1.53h0c.45.06,5,.68,5.95,2.54a1.71,1.71,0,0,1-.14,1.71,1.52,1.52,0,0,1-1.32.88h0c-1.4,0-3-2.1-4-3.52.4,1.74,1.15,4.6,1.93,5.72a.24.24,0,0,1-.06.34A.3.3,0,0,1,240.43,311Zm-1.79-7.15c.88,1.44,2.75,4,4.05,4.06h0a1.05,1.05,0,0,0,.89-.63,1.23,1.23,0,0,0,.12-1.24C243.1,304.76,240.2,304.05,238.64,303.8Zm-2-.12c-2.8,0-4.34.6-4.63,1.27-.18.42.17.87.5,1.16a1.19,1.19,0,0,0,1,.33c1.46-.09,3.35-1.92,4.12-2.74Z" style="fill:#fff"></path><path d="M302.63,322.6c-2.67-3.89-26.15-7.67-26.15-7.67-8.59,11.56-4.76,27.33-4.76,27.33,14.9-.07,35.24-4.57,35.24-4.57S304,324.64,302.63,322.6Z" style="fill:#ebb376"></path><path d="M283.8,328.74a43.2,43.2,0,0,1,3.46,9.64c3.33,20.55,28.9,66.13,28.9,66.13L321.7,402s-9-43.9-14.74-64.27c-1.6-5.67-4.66-11.89-5.44-14.5Z" style="fill:#ebb376"></path><path d="M313,414.79,314,410l.17-8.56h7.17a1.74,1.74,0,0,1,2.85-1.17l1.06,5.36c1.81,1.63,6,5.88,11.66,7.11,1.26.28.86,3.33-2.23,3.33s-9.81-.24-12-.24c-3.62,0-5.72.18-8.61.23l-.24,0A1.08,1.08,0,0,1,313,414.79Z" style="fill:#263238"></path><path d="M226.6,325.7a43.51,43.51,0,0,1,1.92,10.06c.08,20.81,18.22,69.82,18.22,69.82l5.87-1.64s-2-44.77-4.53-65.79c-.69-5.85-2.74-12.47-3.11-15.17Z" style="fill:#ebb376"></path><path d="M242.93,414.79l1-4.75.18-8.56h7.17a1.74,1.74,0,0,1,2.85-1.17l1.06,5.36c1.81,1.63,6,5.88,11.65,7.11,1.27.28.86,3.33-2.22,3.33s-9.82-.24-12.05-.24c-3.63,0-5.73.18-8.62.23a.85.85,0,0,1-.23,0A1.08,1.08,0,0,1,242.93,414.79Z" style="fill:#263238"></path><path d="M223.85,341.12c-1.78-2.12-.79-18.86,5.14-24s14.84-.54,15.83,3.47,2.13,11.2,2.13,11.2S229.78,348.16,223.85,341.12Z" style="fill:#ebb376"></path><path d="M260.12,259.81s-6.3,21-7.51,41.28l-37.53-2.16s-.48-10.43.08-23.54c.14-3.34.34-6.86.64-10.43A145.6,145.6,0,0,1,219,243.79a46.78,46.78,0,0,1,5,.31,63.39,63.39,0,0,1,10.1,1.88h0a52.74,52.74,0,0,1,8,2.89c1.77.81,3.44,1.64,5,2.45h0a87.51,87.51,0,0,1,10.6,6.58C259.27,259.08,260.12,259.81,260.12,259.81Z" style="fill:#ebb376"></path><path d="M190.5,303.12l-2.86-.41c-3.22-.46-6.31,2.48-6.89,6.56s1.57,7.75,4.8,8.21l2.85.41c3.23.45,6.32-2.48,6.89-6.56S193.73,303.57,190.5,303.12Z" style="fill:#263238"></path><path d="M190.5,303.12l-2.86-.41c-3.22-.46-6.31,2.48-6.89,6.56s1.57,7.75,4.8,8.21l2.85.41c3.23.45,6.32-2.48,6.89-6.56S193.73,303.57,190.5,303.12Z" style="fill:#fff;opacity:0.1;isolation:isolate"></path><path d="M195.29,311.33c-.57,4.08-3.66,7-6.89,6.56s-5.37-4.14-4.79-8.22,3.66-7,6.89-6.55S195.87,307.25,195.29,311.33Z" style="fill:#fff;opacity:0.2;isolation:isolate"></path><path d="M201.52,309.29l-10.62-1.51c-1.25-.18-2.45,1-2.68,2.55a2.65,2.65,0,0,0,1.87,3.19L200.71,315a2.67,2.67,0,0,0,2.68-2.55C203.61,310.89,202.78,309.46,201.52,309.29Z" style="fill:#263238"></path><path d="M223.87,245s-6-3.76-10.36-1.47S206,255.06,206,255.06s-6.88,15.15-8.57,17.6-4.08,29.08-4.08,29.08l4.86.94s7.71-15.95,6.28-25.26c-.28-1.85,7.78-2.11,14.61-15.75,0,0,4-5.22,4.87-9.12A16.84,16.84,0,0,0,223.87,245Z" style="fill:#ebb376"></path><path d="M193.35,301.74s-5.09,7.79-5.28,9.68,8.46,4.61,8.46,4.61,3.47-7.8,3-8.94-.79-7-.79-7Z" style="fill:#ebb376"></path><path d="M205.72,305.28l-2.85-.41c-3.23-.46-6.31,2.48-6.89,6.56s1.57,7.75,4.79,8.21l2.86.41c3.23.45,6.31-2.48,6.89-6.56S209,305.73,205.72,305.28Z" style="fill:#263238"></path><path d="M205.72,305.28l-2.85-.41c-3.23-.46-6.31,2.48-6.89,6.56s1.57,7.75,4.79,8.21l2.86.41c3.23.45,6.31-2.48,6.89-6.56S209,305.73,205.72,305.28Z" style="fill:#fff;opacity:0.1;isolation:isolate"></path><path d="M210.52,313.49c-.58,4.08-3.66,7-6.89,6.56s-5.37-4.14-4.8-8.22,3.67-7,6.89-6.55S211.1,309.41,210.52,313.49Z" style="fill:#fff;opacity:0.2;isolation:isolate"></path><path d="M257.67,257.92c-4.37-.07-13-1.93-13-1.93l-2.59,2.85L241,256s-15.52-9.81-15.92-10.33A13.15,13.15,0,0,1,224,244.1a63.39,63.39,0,0,1,10.1,1.88h0a52.74,52.74,0,0,1,8,2.89c1.77.81,3.44,1.64,5,2.45h0A87.51,87.51,0,0,1,257.67,257.92Z" style="opacity:0.1;isolation:isolate"></path><path d="M246.48,249.59c-.69,1.15,2.82,3.64,2.23,4.1a17.13,17.13,0,0,1-6.2,2.58,34.49,34.49,0,0,1-9.56-9c1.31-.12,4.05-1,4.88-1.91,2.13-2.38,4.43-10.12,4.43-10.12l8.38,9s-.19.19-.49.53A35.53,35.53,0,0,0,246.48,249.59Z" style="fill:#ebb376"></path><path d="M241.21,241.74s.09,5.65,5.27,7.85a35.53,35.53,0,0,1,3.67-4.83c-.31-.32-.52-.52-.52-.52Z" style="opacity:0.2;isolation:isolate"></path><path d="M264.82,228.87s-1.07,10.42-7.22,11.32,2-14.74,2-14.74Z" style="fill:#263238"></path><path d="M264.82,228.87s-1.07,10.42-7.22,11.32,2-14.74,2-14.74Z" style="fill:#fff;opacity:0.2;isolation:isolate"></path><path d="M258.37,243.46a21.62,21.62,0,0,1-2.27,2.16,8.89,8.89,0,0,1-.82.59,9.57,9.57,0,0,1-6.91,1.42,9.16,9.16,0,0,1-4.69-2.36,8.58,8.58,0,0,1-2.52-5.18c-.64-4.86,1.86-8,5.67-13.66a9.17,9.17,0,0,1,3.15-3,9.31,9.31,0,0,1,12.74,3.36C265.81,232.06,262.44,239,258.37,243.46Z" style="fill:#ebb376"></path><path d="M258.37,243.46a21.62,21.62,0,0,1-2.27,2.16,8.89,8.89,0,0,1-.82.59,9.57,9.57,0,0,1-6.91,1.42,9.16,9.16,0,0,1-4.69-2.36c-.83-3.28-.11-7.64,2.95-13.18l2.14-1.45s-1,4.92,0,5.61,2.7-.64,3.18,4.58a6.11,6.11,0,0,0,3.28,2.44A11.09,11.09,0,0,0,258.37,243.46Z" style="opacity:0.1;isolation:isolate"></path><path d="M253.9,234.22a.87.87,0,0,0-.08,1.2c.29.22.8,0,1.13-.4s.38-1,.09-1.2S254.25,233.78,253.9,234.22Z" style="fill:#263238"></path><path d="M258.89,238a.87.87,0,0,0-.08,1.2c.29.22.8,0,1.13-.4s.37-1,.09-1.2S259.21,237.61,258.89,238Z" style="fill:#263238"></path><path d="M257.14,237a20,20,0,0,0-.77,5.39,3.22,3.22,0,0,1-2.42-1.23Z" style="fill:#d58745"></path><path d="M254.5,231.13a.36.36,0,0,0,.24.25,2.63,2.63,0,0,1,1.78,1.53.32.32,0,1,0,.61-.19h0a3.21,3.21,0,0,0-2.22-2,.32.32,0,0,0-.4.21h0A.43.43,0,0,0,254.5,231.13Z" style="fill:#263238"></path><path d="M262.81,236.76a.41.41,0,0,0,.19,0,.33.33,0,0,0,0-.46h0a3.22,3.22,0,0,0-2.75-1.14.32.32,0,0,0-.27.37h0a.33.33,0,0,0,.36.27h0a2.63,2.63,0,0,1,2.17.94A.32.32,0,0,0,262.81,236.76Z" style="fill:#263238"></path><path d="M258.42,220.19c-6.34-3.26-12.79-1.18-16,9.28-1.79,5.91-1.28,9.37-1.28,9.37.06-3.26,3.09-8.1,4-7.79s.34,1.25.34,1.25c2.48-.19,6.23-2.54,6.52-5.23.69-6.33,7.57-3.66,8.26-.88,0,0,2.38,3.71,4.53,2.68S265.77,220,258.42,220.19Z" style="fill:#263238"></path><path d="M252,242.73a.2.2,0,0,1-.11,0,4,4,0,0,1-1.9-4.76.25.25,0,0,1,.32-.16.25.25,0,0,1,.16.32,3.41,3.41,0,0,0,1.64,4.15.25.25,0,0,1,.11.34A.24.24,0,0,1,252,242.73Z" style="fill:#263238"></path><path d="M258.42,220.19c-6.34-3.26-12.79-1.18-16,9.28-1.79,5.91-1.28,9.37-1.28,9.37.06-3.26,3.09-8.1,4-7.79s.34,1.25.34,1.25c2.48-.19,6.23-2.54,6.52-5.23.69-6.33,7.57-3.66,8.26-.88,0,0,2.38,3.71,4.53,2.68S265.77,220,258.42,220.19Z" style="fill:#fff;opacity:0.2;isolation:isolate"></path><path d="M254.45,222.19s6.66,8.54,9.31,8.45,5.24-7.31,3.29-10.53-9.15-5.39-9.15-5.39a15.09,15.09,0,0,1,3.81,2.48s-5.57-2.79-9.23-2.88-8.79,4.27-9.87,9l1-1.45s-2.36,5.71-1.11,7.65C242.46,229.47,247,214.82,254.45,222.19Z" style="fill:#263238"></path><path d="M241.08,229.08a6.43,6.43,0,0,0,1,4.86c1.27,1.88,3.38,1.09,4.25-.88.77-1.76,1.07-4.9-.82-6.08A2.9,2.9,0,0,0,241.08,229.08Z" style="fill:#ebb376"></path><path d="M260,271.07l-2.86-8.54-7.71-2.72s3.6,1.87,4.52,2.59c1.36,1.05,3.06,5.27,3.06,5.27s-1.75,7.44-3.76,9.1c-2.46,2-12,1.82-12-1.38,0-5.34.58-12.73.58-12.73s-1.38,11.91-3.42,12.46c-4.17,1.12-15.45-4.05-16.57-6.92-.7-1.8,1.32-12.79,2.91-13.71s7.58.65,7.58.65-4.49-2.87-6.2-2.9c-2.55,0-9.36,4-9.36,4l3.17-.86a37.6,37.6,0,0,1-.07,5.21c-.2,1-1.65,3.1-4.21,6.65-.3,3.57-.32,4.78-.46,8.12,2.19-2,3.37-5.45,4-8.79.57,1.78.81,3.66,1.69,4.47,3.56,3.29,18.43,6,18.43,6s10,4.5,13.21,2.51c2.08-1.28,5.51-10,5.21-10.5S260,271.07,260,271.07Z" style="opacity:0.2;isolation:isolate"></path><path d="M227.53,244.14s-1.14,25.91,10.38,30.26S255,255.53,255,255.53l2.74,1.79s-7.49,31.47-4.25,37.66l-.84,6.12-37.53-2.17L214,290.36s6.46-2.25,7.78-13.72,1.31-32.85,1.31-32.85Z" style="fill:#5120BA"></path><path d="M227.53,244.14s-1.14,25.91,10.38,30.26S255,255.53,255,255.53l2.74,1.79s-7.49,31.47-4.25,37.66l-.84,6.12-37.53-2.17L214,290.36s6.46-2.25,7.78-13.72,1.31-32.85,1.31-32.85Z" style="fill:#fff;opacity:0.5;isolation:isolate"></path></g></g></svg>
